<svg width="481" height="66" viewBox="0 0 481 66" fill="none" xmlns="http://www.w3.org/2000/svg">
<path d="M216.515 8.01493C216.515 8.95678 216.338 9.76346 215.985 10.435C215.635 11.1037 215.157 11.6159 214.551 11.9715C213.948 12.3272 213.264 12.5051 212.498 12.5051C211.733 12.5051 211.047 12.3272 210.441 11.9715C209.838 11.613 209.36 11.0994 209.007 10.4307C208.657 9.75919 208.482 8.95393 208.482 8.01493C208.482 7.07309 208.657 6.26782 209.007 5.59914C209.36 4.92761 209.838 4.41401 210.441 4.05833C211.047 3.70265 211.733 3.5248 212.498 3.5248C213.264 3.5248 213.948 3.70265 214.551 4.05833C215.157 4.41401 215.635 4.92761 215.985 5.59914C216.338 6.26782 216.515 7.07309 216.515 8.01493ZM214.923 8.01493C214.923 7.35194 214.819 6.79281 214.611 6.33754C214.406 5.87942 214.122 5.5337 213.757 5.30037C213.393 5.0642 212.973 4.94611 212.498 4.94611C212.023 4.94611 211.603 5.0642 211.239 5.30037C210.875 5.5337 210.589 5.87942 210.381 6.33754C210.176 6.79281 210.074 7.35194 210.074 8.01493C210.074 8.67792 210.176 9.23848 210.381 9.69659C210.589 10.1519 210.875 10.4976 211.239 10.7338C211.603 10.9671 212.023 11.0838 212.498 11.0838C212.973 11.0838 213.393 10.9671 213.757 10.7338C214.122 10.4976 214.406 10.1519 214.611 9.69659C214.819 9.23848 214.923 8.67792 214.923 8.01493ZM222.122 9.6283V5.82962H223.667V12.3855H222.169V11.2203H222.101C221.953 11.5874 221.709 11.8876 221.371 12.1209C221.035 12.3542 220.621 12.4709 220.129 12.4709C219.699 12.4709 219.319 12.3756 218.989 12.1849C218.662 11.9915 218.406 11.7112 218.221 11.3441C218.036 10.9742 217.943 10.5275 217.943 10.0039V5.82962H219.488V9.76488C219.488 10.1803 219.602 10.5104 219.83 10.7551C220.058 10.9998 220.356 11.1222 220.726 11.1222C220.954 11.1222 221.174 11.0667 221.388 10.9557C221.601 10.8447 221.776 10.6797 221.913 10.4606C222.052 10.2387 222.122 9.96122 222.122 9.6283ZM225.256 12.3855V5.82962H226.754V6.92228H226.822C226.942 6.54383 227.147 6.25217 227.437 6.0473C227.73 5.83958 228.064 5.73572 228.44 5.73572C228.525 5.73572 228.621 5.73999 228.726 5.74853C228.834 5.75422 228.924 5.76418 228.995 5.7784V7.19971C228.929 7.17694 228.825 7.15703 228.683 7.13995C228.544 7.12004 228.409 7.11008 228.278 7.11008C227.996 7.11008 227.743 7.17125 227.518 7.29361C227.296 7.41312 227.121 7.57958 226.993 7.79299C226.865 8.00639 226.801 8.25253 226.801 8.53138V12.3855H225.256ZM240.553 6.59363H238.957C238.911 6.33184 238.827 6.09994 238.705 5.89791C238.582 5.69304 238.43 5.51947 238.248 5.37719C238.066 5.23492 237.858 5.12822 237.625 5.05708C237.395 4.9831 237.146 4.94611 236.878 4.94611C236.403 4.94611 235.982 5.06562 235.615 5.30464C235.248 5.54081 234.96 5.88795 234.753 6.34607C234.545 6.80134 234.441 7.35763 234.441 8.01493C234.441 8.68361 234.545 9.24701 234.753 9.70513C234.963 10.1604 235.25 10.5047 235.615 10.738C235.982 10.9685 236.401 11.0838 236.874 11.0838C237.136 11.0838 237.38 11.0496 237.608 10.9813C237.838 10.9102 238.045 10.8063 238.227 10.6697C238.412 10.5332 238.567 10.3653 238.692 10.1661C238.82 9.96691 238.908 9.73928 238.957 9.48318L240.553 9.49172C240.493 9.90716 240.364 10.297 240.165 10.6612C239.968 11.0254 239.711 11.347 239.392 11.6258C239.073 11.9018 238.701 12.1181 238.274 12.2746C237.847 12.4282 237.373 12.5051 236.852 12.5051C236.084 12.5051 235.398 12.3272 234.795 11.9715C234.192 11.6159 233.717 11.1022 233.37 10.4307C233.022 9.75919 232.849 8.95393 232.849 8.01493C232.849 7.07309 233.024 6.26782 233.374 5.59914C233.724 4.92761 234.2 4.41401 234.804 4.05833C235.407 3.70265 236.09 3.5248 236.852 3.5248C237.339 3.5248 237.791 3.5931 238.21 3.72968C238.628 3.86626 239.001 4.06686 239.328 4.33149C239.655 4.59327 239.924 4.91481 240.135 5.2961C240.348 5.67455 240.488 6.10705 240.553 6.59363ZM243.48 3.64431V12.3855H241.935V3.64431H243.48ZM245.069 12.3855V5.82962H246.614V12.3855H245.069ZM245.846 4.89916C245.601 4.89916 245.39 4.81806 245.214 4.65587C245.037 4.49084 244.949 4.29308 244.949 4.0626C244.949 3.82927 245.037 3.63151 245.214 3.46932C245.39 3.30428 245.601 3.22176 245.846 3.22176C246.093 3.22176 246.304 3.30428 246.477 3.46932C246.654 3.63151 246.742 3.82927 246.742 4.0626C246.742 4.29308 246.654 4.49084 246.477 4.65587C246.304 4.81806 246.093 4.89916 245.846 4.89916ZM251.105 12.5136C250.448 12.5136 249.88 12.377 249.402 12.1038C248.927 11.8278 248.561 11.438 248.305 10.9344C248.049 10.4279 247.921 9.83175 247.921 9.146C247.921 8.47163 248.049 7.87977 248.305 7.37044C248.564 6.85825 248.925 6.45989 249.389 6.17534C249.853 5.88795 250.398 5.74426 251.024 5.74426C251.428 5.74426 251.809 5.8097 252.168 5.94059C252.529 6.06864 252.848 6.26782 253.124 6.53814C253.403 6.80846 253.622 7.15276 253.781 7.57104C253.94 7.98648 254.02 8.48159 254.02 9.05637V9.53013H248.647V8.4887H252.539C252.536 8.19277 252.472 7.92957 252.347 7.69909C252.222 7.46576 252.047 7.28223 251.822 7.14849C251.6 7.01475 251.341 6.94789 251.045 6.94789C250.729 6.94789 250.452 7.02471 250.213 7.17837C249.974 7.32918 249.788 7.52836 249.654 7.77591C249.523 8.02062 249.456 8.28952 249.453 8.5826V9.49172C249.453 9.87301 249.523 10.2002 249.662 10.4734C249.802 10.7437 249.997 10.9514 250.247 11.0966C250.497 11.2388 250.791 11.31 251.126 11.31C251.351 11.31 251.555 11.2787 251.737 11.2161C251.919 11.1506 252.077 11.0553 252.21 10.9301C252.344 10.8049 252.445 10.6498 252.513 10.4649L253.956 10.6271C253.865 11.0083 253.692 11.3413 253.435 11.6258C253.182 11.9075 252.858 12.1266 252.462 12.2831C252.067 12.4368 251.614 12.5136 251.105 12.5136ZM256.872 8.54419V12.3855H255.327V5.82962H256.804V6.94362H256.881C257.032 6.57655 257.272 6.28489 257.602 6.06864C257.935 5.85239 258.346 5.74426 258.836 5.74426C259.288 5.74426 259.682 5.841 260.018 6.03449C260.357 6.22799 260.618 6.50826 260.803 6.87533C260.991 7.24239 261.084 7.6877 261.081 8.21127V12.3855H259.536V8.45029C259.536 8.01209 259.422 7.66921 259.194 7.42165C258.969 7.1741 258.658 7.05032 258.26 7.05032C257.989 7.05032 257.749 7.11008 257.538 7.22959C257.33 7.34625 257.167 7.51555 257.047 7.7375C256.931 7.95944 256.872 8.22834 256.872 8.54419ZM265.925 5.82962V7.02471H262.156V5.82962H265.925ZM263.087 4.25893H264.632V10.4136C264.632 10.6214 264.663 10.7807 264.726 10.8917C264.791 10.9998 264.877 11.0738 264.982 11.1136C265.087 11.1535 265.204 11.1734 265.332 11.1734C265.429 11.1734 265.517 11.1663 265.597 11.152C265.679 11.1378 265.742 11.125 265.784 11.1136L266.045 12.3215C265.962 12.35 265.844 12.3813 265.69 12.4154C265.54 12.4496 265.355 12.4695 265.136 12.4752C264.749 12.4866 264.4 12.4282 264.09 12.3002C263.78 12.1693 263.534 11.9673 263.351 11.6941C263.172 11.4209 263.084 11.0795 263.087 10.6697V4.25893ZM272.305 7.5625L270.897 7.71616C270.857 7.57389 270.787 7.44015 270.687 7.31495C270.591 7.18975 270.46 7.08874 270.295 7.01191C270.13 6.93508 269.928 6.89667 269.689 6.89667C269.367 6.89667 269.097 6.96638 268.878 7.10581C268.661 7.24524 268.555 7.42592 268.558 7.64787C268.555 7.83851 268.624 7.99359 268.767 8.1131C268.912 8.23261 269.151 8.33078 269.484 8.4076L270.602 8.64662C271.222 8.78036 271.683 8.99234 271.985 9.28258C272.289 9.57282 272.443 9.95268 272.446 10.4222C272.443 10.8348 272.322 11.199 272.083 11.5148C271.847 11.8278 271.518 12.0725 271.097 12.249C270.676 12.4254 270.192 12.5136 269.646 12.5136C268.844 12.5136 268.198 12.3457 267.708 12.0099C267.219 11.6713 266.927 11.2004 266.833 10.5972L268.34 10.4521C268.408 10.748 268.553 10.9714 268.775 11.1222C268.997 11.273 269.286 11.3484 269.642 11.3484C270.009 11.3484 270.303 11.273 270.525 11.1222C270.75 10.9714 270.862 10.785 270.862 10.563C270.862 10.3752 270.79 10.2202 270.645 10.0978C270.502 9.97545 270.28 9.88155 269.979 9.8161L268.861 9.58135C268.232 9.45046 267.767 9.22994 267.465 8.91978C267.163 8.60679 267.014 8.21127 267.017 7.73323C267.014 7.32918 267.123 6.97919 267.345 6.68326C267.57 6.38449 267.882 6.154 268.28 5.99181C268.681 5.82678 269.144 5.74426 269.667 5.74426C270.436 5.74426 271.04 5.90787 271.481 6.2351C271.925 6.56233 272.2 7.00479 272.305 7.5625Z" fill="#4D4D4D"/>
<path d="M172.293 24.0565L171.231 20.1715H171.709L172.521 23.3356H172.559L173.386 20.1715H173.917L174.744 23.3356H174.782L175.594 20.1715H176.072L175.01 24.0565H174.524L173.666 20.9606H173.636L172.779 24.0565H172.293ZM177.548 24.1172C177.267 24.1172 177.025 24.0552 176.821 23.9313C176.619 23.8061 176.463 23.6316 176.353 23.4077C176.244 23.1826 176.189 22.9208 176.189 22.6224C176.189 22.3239 176.244 22.0609 176.353 21.8332C176.463 21.6043 176.616 21.426 176.812 21.2983C177.009 21.1693 177.239 21.1048 177.502 21.1048C177.654 21.1048 177.804 21.1301 177.952 21.1807C178.1 21.2313 178.234 21.3135 178.356 21.4273C178.477 21.5398 178.574 21.6891 178.646 21.875C178.718 22.0609 178.754 22.2898 178.754 22.5617V22.7514H176.508V22.3644H178.299C178.299 22.2 178.266 22.0533 178.2 21.9243C178.136 21.7953 178.043 21.6935 177.923 21.6189C177.804 21.5443 177.664 21.507 177.502 21.507C177.324 21.507 177.17 21.5512 177.039 21.6397C176.91 21.727 176.811 21.8408 176.741 21.9812C176.672 22.1216 176.637 22.2721 176.637 22.4327V22.6907C176.637 22.9107 176.675 23.0972 176.751 23.2503C176.828 23.402 176.935 23.5177 177.072 23.5974C177.208 23.6758 177.367 23.715 177.548 23.715C177.665 23.715 177.772 23.6986 177.866 23.6657C177.962 23.6316 178.045 23.581 178.115 23.5139C178.184 23.4457 178.238 23.3609 178.276 23.2598L178.709 23.3812C178.663 23.5279 178.587 23.6569 178.479 23.7681C178.372 23.8782 178.239 23.9642 178.081 24.0261C177.923 24.0868 177.745 24.1172 177.548 24.1172ZM181.385 22.3037V24.0565H180.938V20.1715H181.385V21.598H181.423C181.491 21.4475 181.594 21.328 181.731 21.2395C181.868 21.1497 182.052 21.1048 182.281 21.1048C182.479 21.1048 182.653 21.1446 182.802 21.2243C182.952 21.3027 183.067 21.4235 183.149 21.5866C183.233 21.7485 183.275 21.9546 183.275 22.205V24.0565H182.827V22.2354C182.827 22.004 182.767 21.825 182.647 21.6985C182.528 21.5708 182.363 21.507 182.152 21.507C182.005 21.507 181.873 21.5379 181.757 21.5999C181.642 21.6619 181.551 21.7523 181.484 21.8712C181.418 21.99 181.385 22.1342 181.385 22.3037ZM184.951 24.1248C184.766 24.1248 184.599 24.09 184.448 24.0204C184.298 23.9496 184.178 23.8478 184.09 23.715C184.001 23.581 183.957 23.4191 183.957 23.2294C183.957 23.0625 183.99 22.9272 184.056 22.8235C184.121 22.7185 184.209 22.6363 184.319 22.5768C184.429 22.5174 184.551 22.4731 184.684 22.4441C184.818 22.4137 184.952 22.3897 185.088 22.372C185.265 22.3492 185.408 22.3321 185.518 22.3208C185.63 22.3081 185.71 22.2872 185.761 22.2582C185.813 22.2291 185.839 22.1785 185.839 22.1064V22.0912C185.839 21.9041 185.788 21.7586 185.685 21.6549C185.584 21.5512 185.43 21.4994 185.224 21.4994C185.011 21.4994 184.843 21.5462 184.722 21.6397C184.6 21.7333 184.515 21.8332 184.465 21.9395L184.041 21.7877C184.116 21.6107 184.218 21.4728 184.344 21.3742C184.472 21.2743 184.611 21.2047 184.761 21.1655C184.913 21.125 185.062 21.1048 185.209 21.1048C185.303 21.1048 185.41 21.1162 185.532 21.1389C185.654 21.1604 185.772 21.2053 185.886 21.2736C186.001 21.3419 186.097 21.445 186.173 21.5828C186.249 21.7207 186.287 21.9053 186.287 22.1367V24.0565H185.839V23.6619H185.816C185.786 23.7251 185.735 23.7928 185.664 23.8649C185.594 23.937 185.499 23.9983 185.382 24.0489C185.264 24.0995 185.121 24.1248 184.951 24.1248ZM185.019 23.7226C185.196 23.7226 185.346 23.6878 185.467 23.6183C185.59 23.5487 185.682 23.4589 185.744 23.3489C185.807 23.2389 185.839 23.1232 185.839 23.0018V22.592C185.82 22.6148 185.778 22.6357 185.714 22.6546C185.65 22.6723 185.577 22.6881 185.494 22.702C185.411 22.7147 185.331 22.7261 185.253 22.7362C185.176 22.745 185.113 22.7526 185.065 22.759C184.949 22.7741 184.84 22.7988 184.739 22.8329C184.639 22.8658 184.558 22.9158 184.496 22.9828C184.435 23.0486 184.405 23.1383 184.405 23.2522C184.405 23.4077 184.462 23.5253 184.577 23.605C184.694 23.6834 184.841 23.7226 185.019 23.7226ZM189.382 21.1427L188.304 24.0565H187.849L186.772 21.1427H187.257L188.062 23.4646H188.092L188.896 21.1427H189.382ZM191.09 24.1172C190.809 24.1172 190.567 24.0552 190.364 23.9313C190.161 23.8061 190.005 23.6316 189.895 23.4077C189.786 23.1826 189.732 22.9208 189.732 22.6224C189.732 22.3239 189.786 22.0609 189.895 21.8332C190.005 21.6043 190.158 21.426 190.354 21.2983C190.551 21.1693 190.782 21.1048 191.045 21.1048C191.196 21.1048 191.346 21.1301 191.494 21.1807C191.642 21.2313 191.777 21.3135 191.898 21.4273C192.02 21.5398 192.116 21.6891 192.188 21.875C192.261 22.0609 192.297 22.2898 192.297 22.5617V22.7514H190.051V22.3644H191.841C191.841 22.2 191.808 22.0533 191.743 21.9243C191.678 21.7953 191.586 21.6935 191.466 21.6189C191.347 21.5443 191.207 21.507 191.045 21.507C190.866 21.507 190.712 21.5512 190.582 21.6397C190.453 21.727 190.353 21.8408 190.284 21.9812C190.214 22.1216 190.18 22.2721 190.18 22.4327V22.6907C190.18 22.9107 190.218 23.0972 190.293 23.2503C190.371 23.402 190.477 23.5177 190.614 23.5974C190.751 23.6758 190.909 23.715 191.09 23.715C191.208 23.715 191.314 23.6986 191.409 23.6657C191.505 23.6316 191.588 23.581 191.657 23.5139C191.727 23.4457 191.781 23.3609 191.819 23.2598L192.251 23.3812C192.206 23.5279 192.129 23.6569 192.022 23.7681C191.914 23.8782 191.781 23.9642 191.623 24.0261C191.465 24.0868 191.287 24.1172 191.09 24.1172ZM194.541 24.0565V20.1715H194.988V21.6056H195.026C195.059 21.555 195.105 21.4905 195.163 21.4121C195.222 21.3324 195.307 21.2616 195.417 21.1996C195.528 21.1364 195.679 21.1048 195.869 21.1048C196.114 21.1048 196.33 21.1661 196.517 21.2888C196.705 21.4115 196.851 21.5854 196.956 21.8105C197.061 22.0356 197.113 22.3012 197.113 22.6072C197.113 22.9158 197.061 23.1832 196.956 23.4096C196.851 23.6347 196.705 23.8092 196.519 23.9332C196.333 24.0558 196.119 24.1172 195.876 24.1172C195.689 24.1172 195.539 24.0862 195.427 24.0242C195.314 23.961 195.227 23.8895 195.167 23.8099C195.106 23.7289 195.059 23.6619 195.026 23.6088H194.973V24.0565H194.541ZM194.981 22.5996C194.981 22.8197 195.013 23.0138 195.078 23.182C195.142 23.3489 195.236 23.4798 195.36 23.5747C195.484 23.6682 195.636 23.715 195.815 23.715C196.003 23.715 196.159 23.6657 196.284 23.5671C196.411 23.4672 196.505 23.3331 196.569 23.1649C196.633 22.9954 196.665 22.807 196.665 22.5996C196.665 22.3947 196.634 22.2101 196.57 22.0457C196.509 21.88 196.414 21.7491 196.288 21.653C196.163 21.5556 196.005 21.507 195.815 21.507C195.633 21.507 195.48 21.5531 195.356 21.6454C195.232 21.7365 195.139 21.8642 195.076 22.0286C195.012 22.1918 194.981 22.3821 194.981 22.5996ZM199.019 24.1172C198.739 24.1172 198.497 24.0552 198.293 23.9313C198.091 23.8061 197.934 23.6316 197.824 23.4077C197.716 23.1826 197.661 22.9208 197.661 22.6224C197.661 22.3239 197.716 22.0609 197.824 21.8332C197.934 21.6043 198.087 21.426 198.283 21.2983C198.481 21.1693 198.711 21.1048 198.974 21.1048C199.126 21.1048 199.276 21.1301 199.424 21.1807C199.571 21.2313 199.706 21.3135 199.828 21.4273C199.949 21.5398 200.046 21.6891 200.118 21.875C200.19 22.0609 200.226 22.2898 200.226 22.5617V22.7514H197.98V22.3644H199.771C199.771 22.2 199.738 22.0533 199.672 21.9243C199.608 21.7953 199.515 21.6935 199.395 21.6189C199.276 21.5443 199.136 21.507 198.974 21.507C198.796 21.507 198.641 21.5512 198.511 21.6397C198.382 21.727 198.283 21.8408 198.213 21.9812C198.144 22.1216 198.109 22.2721 198.109 22.4327V22.6907C198.109 22.9107 198.147 23.0972 198.223 23.2503C198.3 23.402 198.407 23.5177 198.543 23.5974C198.68 23.6758 198.839 23.715 199.019 23.715C199.137 23.715 199.243 23.6986 199.338 23.6657C199.434 23.6316 199.517 23.581 199.587 23.5139C199.656 23.4457 199.71 23.3609 199.748 23.2598L200.18 23.3812C200.135 23.5279 200.058 23.6569 199.951 23.7681C199.843 23.8782 199.711 23.9642 199.553 24.0261C199.394 24.0868 199.217 24.1172 199.019 24.1172ZM202.129 24.1172C201.848 24.1172 201.606 24.0552 201.402 23.9313C201.2 23.8061 201.044 23.6316 200.934 23.4077C200.825 23.1826 200.77 22.9208 200.77 22.6224C200.77 22.3239 200.825 22.0609 200.934 21.8332C201.044 21.6043 201.197 21.426 201.393 21.2983C201.59 21.1693 201.82 21.1048 202.083 21.1048C202.235 21.1048 202.385 21.1301 202.533 21.1807C202.681 21.2313 202.815 21.3135 202.937 21.4273C203.058 21.5398 203.155 21.6891 203.227 21.875C203.299 22.0609 203.335 22.2898 203.335 22.5617V22.7514H201.089V22.3644H202.88C202.88 22.2 202.847 22.0533 202.781 21.9243C202.717 21.7953 202.624 21.6935 202.504 21.6189C202.385 21.5443 202.245 21.507 202.083 21.507C201.905 21.507 201.75 21.5512 201.62 21.6397C201.491 21.727 201.392 21.8408 201.322 21.9812C201.253 22.1216 201.218 22.2721 201.218 22.4327V22.6907C201.218 22.9107 201.256 23.0972 201.332 23.2503C201.409 23.402 201.516 23.5177 201.652 23.5974C201.789 23.6758 201.948 23.715 202.129 23.715C202.246 23.715 202.352 23.6986 202.447 23.6657C202.543 23.6316 202.626 23.581 202.696 23.5139C202.765 23.4457 202.819 23.3609 202.857 23.2598L203.29 23.3812C203.244 23.5279 203.168 23.6569 203.06 23.7681C202.953 23.8782 202.82 23.9642 202.662 24.0261C202.504 24.0868 202.326 24.1172 202.129 24.1172ZM204.464 22.3037V24.0565H204.016V21.1427H204.449V21.598H204.487C204.555 21.45 204.659 21.3312 204.798 21.2414C204.937 21.1503 205.116 21.1048 205.336 21.1048C205.534 21.1048 205.706 21.1453 205.854 21.2262C206.002 21.3059 206.117 21.4273 206.199 21.5904C206.282 21.7523 206.323 21.9572 206.323 22.205V24.0565H205.875V22.2354C205.875 22.0065 205.816 21.8282 205.697 21.7004C205.578 21.5715 205.415 21.507 205.207 21.507C205.064 21.507 204.937 21.5379 204.824 21.5999C204.713 21.6619 204.625 21.7523 204.561 21.8712C204.496 21.99 204.464 22.1342 204.464 22.3037ZM209.303 24.0565L208.416 21.1427H208.886L209.516 23.3736H209.546L210.168 21.1427H210.646L211.261 23.366H211.291L211.921 21.1427H212.392L211.504 24.0565H211.064L210.426 21.8181H210.381L209.744 24.0565H209.303ZM214.068 24.1172C213.805 24.1172 213.574 24.0546 213.376 23.9294C213.178 23.8042 213.024 23.629 212.913 23.4039C212.803 23.1788 212.748 22.9158 212.748 22.6148C212.748 22.3113 212.803 22.0463 212.913 21.82C213.024 21.5936 213.178 21.4178 213.376 21.2926C213.574 21.1674 213.805 21.1048 214.068 21.1048C214.331 21.1048 214.561 21.1674 214.759 21.2926C214.957 21.4178 215.111 21.5936 215.221 21.82C215.333 22.0463 215.388 22.3113 215.388 22.6148C215.388 22.9158 215.333 23.1788 215.221 23.4039C215.111 23.629 214.957 23.8042 214.759 23.9294C214.561 24.0546 214.331 24.1172 214.068 24.1172ZM214.068 23.715C214.268 23.715 214.432 23.6638 214.561 23.5614C214.69 23.4589 214.786 23.3243 214.848 23.1573C214.91 22.9904 214.941 22.8095 214.941 22.6148C214.941 22.42 214.91 22.2386 214.848 22.0704C214.786 21.9022 214.69 21.7662 214.561 21.6625C214.432 21.5588 214.268 21.507 214.068 21.507C213.868 21.507 213.704 21.5588 213.575 21.6625C213.446 21.7662 213.35 21.9022 213.288 22.0704C213.227 22.2386 213.196 22.42 213.196 22.6148C213.196 22.8095 213.227 22.9904 213.288 23.1573C213.35 23.3243 213.446 23.4589 213.575 23.5614C213.704 23.6638 213.868 23.715 214.068 23.715ZM216.072 24.0565V21.1427H216.504V21.5828H216.535C216.588 21.4387 216.684 21.3217 216.823 21.2319C216.962 21.1421 217.119 21.0972 217.293 21.0972C217.326 21.0972 217.367 21.0978 217.417 21.0991C217.466 21.1004 217.503 21.1023 217.529 21.1048V21.5601C217.514 21.5563 217.479 21.5506 217.424 21.543C217.371 21.5341 217.315 21.5297 217.256 21.5297C217.114 21.5297 216.987 21.5594 216.876 21.6189C216.766 21.677 216.679 21.758 216.614 21.8617C216.551 21.9641 216.519 22.0811 216.519 22.2126V24.0565H216.072ZM218.477 22.9942L218.469 22.4403H218.56L219.835 21.1427H220.389L219.031 22.5161H218.993L218.477 22.9942ZM218.059 24.0565V20.1715H218.507V24.0565H218.059ZM219.911 24.0565L218.773 22.6148L219.091 22.3037L220.48 24.0565H219.911ZM220.965 24.0565V21.1427H221.413V24.0565H220.965ZM221.193 20.6571C221.105 20.6571 221.03 20.6274 220.967 20.568C220.905 20.5085 220.874 20.4371 220.874 20.3536C220.874 20.2701 220.905 20.1987 220.967 20.1392C221.03 20.0798 221.105 20.0501 221.193 20.0501C221.28 20.0501 221.355 20.0798 221.417 20.1392C221.48 20.1987 221.511 20.2701 221.511 20.3536C221.511 20.4371 221.48 20.5085 221.417 20.568C221.355 20.6274 221.28 20.6571 221.193 20.6571ZM222.68 22.3037V24.0565H222.233V21.1427H222.665V21.598H222.703C222.771 21.45 222.875 21.3312 223.014 21.2414C223.153 21.1503 223.333 21.1048 223.553 21.1048C223.75 21.1048 223.923 21.1453 224.071 21.2262C224.219 21.3059 224.334 21.4273 224.416 21.5904C224.498 21.7523 224.539 21.9572 224.539 22.205V24.0565H224.092V22.2354C224.092 22.0065 224.032 21.8282 223.913 21.7004C223.795 21.5715 223.631 21.507 223.424 21.507C223.281 21.507 223.153 21.5379 223.041 21.5999C222.93 21.6619 222.842 21.7523 222.777 21.8712C222.713 21.99 222.68 22.1342 222.68 22.3037ZM226.534 25.2098C226.317 25.2098 226.131 25.182 225.976 25.1264C225.82 25.072 225.691 24.9999 225.587 24.9101C225.485 24.8216 225.403 24.7267 225.342 24.6256L225.699 24.3752C225.739 24.4283 225.791 24.489 225.853 24.5573C225.915 24.6268 225.999 24.6869 226.107 24.7375C226.216 24.7893 226.358 24.8153 226.534 24.8153C226.769 24.8153 226.963 24.7584 227.116 24.6445C227.269 24.5307 227.345 24.3524 227.345 24.1096V23.5177H227.308C227.275 23.5709 227.228 23.6366 227.167 23.715C227.108 23.7922 227.022 23.8611 226.909 23.9218C226.798 23.9812 226.647 24.011 226.458 24.011C226.222 24.011 226.011 23.9553 225.824 23.844C225.638 23.7327 225.491 23.5709 225.382 23.3584C225.275 23.1459 225.221 22.8879 225.221 22.5844C225.221 22.286 225.273 22.0261 225.378 21.8048C225.483 21.5822 225.629 21.4102 225.817 21.2888C226.004 21.1661 226.22 21.1048 226.465 21.1048C226.655 21.1048 226.805 21.1364 226.917 21.1996C227.029 21.2616 227.115 21.3324 227.175 21.4121C227.235 21.4905 227.282 21.555 227.315 21.6056H227.361V21.1427H227.793V24.1399C227.793 24.3903 227.736 24.594 227.622 24.7508C227.51 24.9089 227.358 25.0246 227.167 25.0979C226.977 25.1725 226.766 25.2098 226.534 25.2098ZM226.518 23.6088C226.698 23.6088 226.85 23.5677 226.974 23.4855C227.098 23.4033 227.192 23.285 227.256 23.1308C227.321 22.9765 227.353 22.7918 227.353 22.5768C227.353 22.3669 227.321 22.1816 227.258 22.021C227.195 21.8604 227.101 21.7346 226.977 21.6435C226.854 21.5525 226.701 21.507 226.518 21.507C226.329 21.507 226.171 21.555 226.044 21.6511C225.919 21.7472 225.825 21.8762 225.762 22.0381C225.7 22.2 225.669 22.3796 225.669 22.5768C225.669 22.7792 225.7 22.9581 225.763 23.1137C225.828 23.268 225.923 23.3894 226.048 23.4779C226.174 23.5652 226.331 23.6088 226.518 23.6088ZM230.775 24.0565L229.887 21.1427H230.358L230.988 23.3736H231.018L231.64 21.1427H232.118L232.733 23.366H232.763L233.393 21.1427H233.863L232.976 24.0565H232.536L231.898 21.8181H231.853L231.215 24.0565H230.775ZM234.455 24.0565V21.1427H234.903V24.0565H234.455ZM234.683 20.6571C234.596 20.6571 234.52 20.6274 234.457 20.568C234.395 20.5085 234.364 20.4371 234.364 20.3536C234.364 20.2701 234.395 20.1987 234.457 20.1392C234.52 20.0798 234.596 20.0501 234.683 20.0501C234.77 20.0501 234.845 20.0798 234.907 20.1392C234.97 20.1987 235.002 20.2701 235.002 20.3536C235.002 20.4371 234.97 20.5085 234.907 20.568C234.845 20.6274 234.77 20.6571 234.683 20.6571ZM236.99 21.1427V21.5221H235.48V21.1427H236.99ZM235.92 20.4447H236.368V23.2218C236.368 23.3483 236.386 23.4431 236.423 23.5064C236.461 23.5683 236.509 23.6101 236.567 23.6316C236.627 23.6518 236.689 23.6619 236.755 23.6619C236.804 23.6619 236.845 23.6594 236.876 23.6543C236.908 23.648 236.933 23.6429 236.952 23.6391L237.043 24.0413C237.013 24.0527 236.971 24.0641 236.916 24.0755C236.862 24.0881 236.793 24.0944 236.709 24.0944C236.583 24.0944 236.459 24.0672 236.338 24.0129C236.217 23.9585 236.118 23.8756 236.038 23.7643C235.959 23.6531 235.92 23.5127 235.92 23.3432V20.4447ZM238.174 22.3037V24.0565H237.726V20.1715H238.174V21.598H238.212C238.28 21.4475 238.383 21.328 238.519 21.2395C238.657 21.1497 238.84 21.1048 239.069 21.1048C239.268 21.1048 239.442 21.1446 239.591 21.2243C239.74 21.3027 239.856 21.4235 239.938 21.5866C240.022 21.7485 240.063 21.9546 240.063 22.205V24.0565H239.616V22.2354C239.616 22.004 239.555 21.825 239.435 21.6985C239.316 21.5708 239.151 21.507 238.94 21.507C238.794 21.507 238.662 21.5379 238.546 21.5999C238.431 21.6619 238.34 21.7523 238.272 21.8712C238.207 21.99 238.174 22.1342 238.174 22.3037ZM244.449 21.7953L244.046 21.9091C244.021 21.8421 243.984 21.777 243.934 21.7137C243.886 21.6492 243.821 21.5961 243.737 21.5544C243.654 21.5126 243.547 21.4918 243.417 21.4918C243.238 21.4918 243.09 21.5329 242.971 21.6151C242.853 21.696 242.794 21.7991 242.794 21.9243C242.794 22.0356 242.835 22.1235 242.916 22.188C242.997 22.2525 243.123 22.3062 243.295 22.3492L243.728 22.4554C243.988 22.5187 244.182 22.6154 244.31 22.7457C244.438 22.8747 244.502 23.041 244.502 23.2446C244.502 23.4115 244.454 23.5607 244.358 23.6923C244.263 23.8238 244.13 23.9275 243.959 24.0034C243.788 24.0792 243.59 24.1172 243.363 24.1172C243.066 24.1172 242.82 24.0527 242.626 23.9237C242.431 23.7947 242.308 23.6063 242.256 23.3584L242.681 23.2522C242.721 23.409 242.798 23.5266 242.91 23.605C243.024 23.6834 243.173 23.7226 243.356 23.7226C243.565 23.7226 243.73 23.6784 243.853 23.5898C243.977 23.5 244.039 23.3925 244.039 23.2673C244.039 23.1662 244.003 23.0814 243.933 23.0131C243.862 22.9436 243.753 22.8917 243.606 22.8576L243.121 22.7438C242.854 22.6805 242.658 22.5825 242.533 22.4497C242.409 22.3157 242.347 22.1481 242.347 21.9471C242.347 21.7826 242.393 21.6372 242.485 21.5107C242.579 21.3843 242.706 21.285 242.866 21.2129C243.028 21.1408 243.212 21.1048 243.417 21.1048C243.705 21.1048 243.931 21.168 244.096 21.2945C244.261 21.421 244.379 21.5879 244.449 21.7953ZM246.359 24.1172C246.096 24.1172 245.865 24.0546 245.667 23.9294C245.47 23.8042 245.315 23.629 245.204 23.4039C245.094 23.1788 245.039 22.9158 245.039 22.6148C245.039 22.3113 245.094 22.0463 245.204 21.82C245.315 21.5936 245.47 21.4178 245.667 21.2926C245.865 21.1674 246.096 21.1048 246.359 21.1048C246.622 21.1048 246.852 21.1674 247.05 21.2926C247.248 21.4178 247.403 21.5936 247.513 21.82C247.624 22.0463 247.68 22.3113 247.68 22.6148C247.68 22.9158 247.624 23.1788 247.513 23.4039C247.403 23.629 247.248 23.8042 247.05 23.9294C246.852 24.0546 246.622 24.1172 246.359 24.1172ZM246.359 23.715C246.559 23.715 246.723 23.6638 246.852 23.5614C246.981 23.4589 247.077 23.3243 247.139 23.1573C247.201 22.9904 247.232 22.8095 247.232 22.6148C247.232 22.42 247.201 22.2386 247.139 22.0704C247.077 21.9022 246.981 21.7662 246.852 21.6625C246.723 21.5588 246.559 21.507 246.359 21.507C246.159 21.507 245.995 21.5588 245.866 21.6625C245.737 21.7662 245.642 21.9022 245.58 22.0704C245.518 22.2386 245.487 22.42 245.487 22.6148C245.487 22.8095 245.518 22.9904 245.58 23.1573C245.642 23.3243 245.737 23.4589 245.866 23.5614C245.995 23.6638 246.159 23.715 246.359 23.715ZM248.363 24.0565V21.1427H248.795V21.598H248.833C248.894 21.4425 248.992 21.3217 249.127 21.2357C249.263 21.1484 249.425 21.1048 249.615 21.1048C249.807 21.1048 249.967 21.1484 250.095 21.2357C250.224 21.3217 250.324 21.4425 250.397 21.598H250.427C250.501 21.4475 250.613 21.328 250.763 21.2395C250.912 21.1497 251.091 21.1048 251.299 21.1048C251.56 21.1048 251.773 21.1864 251.939 21.3495C252.104 21.5114 252.187 21.7637 252.187 22.1064V24.0565H251.74V22.1064C251.74 21.8914 251.681 21.7378 251.563 21.6454C251.446 21.5531 251.307 21.507 251.148 21.507C250.943 21.507 250.784 21.5689 250.672 21.6929C250.559 21.8155 250.503 21.9711 250.503 22.1595V24.0565H250.047V22.0609C250.047 21.8952 249.994 21.7618 249.886 21.6606C249.779 21.5582 249.64 21.507 249.471 21.507C249.354 21.507 249.246 21.5379 249.145 21.5999C249.045 21.6619 248.964 21.7479 248.902 21.8579C248.841 21.9667 248.811 22.0925 248.811 22.2354V24.0565H248.363ZM254.227 24.1172C253.947 24.1172 253.705 24.0552 253.501 23.9313C253.299 23.8061 253.142 23.6316 253.032 23.4077C252.924 23.1826 252.869 22.9208 252.869 22.6224C252.869 22.3239 252.924 22.0609 253.032 21.8332C253.142 21.6043 253.295 21.426 253.491 21.2983C253.689 21.1693 253.919 21.1048 254.182 21.1048C254.334 21.1048 254.484 21.1301 254.632 21.1807C254.779 21.2313 254.914 21.3135 255.036 21.4273C255.157 21.5398 255.254 21.6891 255.326 21.875C255.398 22.0609 255.434 22.2898 255.434 22.5617V22.7514H253.188V22.3644H254.979C254.979 22.2 254.946 22.0533 254.88 21.9243C254.816 21.7953 254.723 21.6935 254.603 21.6189C254.484 21.5443 254.344 21.507 254.182 21.507C254.004 21.507 253.849 21.5512 253.719 21.6397C253.59 21.727 253.491 21.8408 253.421 21.9812C253.352 22.1216 253.317 22.2721 253.317 22.4327V22.6907C253.317 22.9107 253.355 23.0972 253.431 23.2503C253.508 23.402 253.615 23.5177 253.751 23.5974C253.888 23.6758 254.047 23.715 254.227 23.715C254.345 23.715 254.451 23.6986 254.546 23.6657C254.642 23.6316 254.725 23.581 254.795 23.5139C254.864 23.4457 254.918 23.3609 254.956 23.2598L255.388 23.3812C255.343 23.5279 255.266 23.6569 255.159 23.7681C255.051 23.8782 254.919 23.9642 254.76 24.0261C254.602 24.0868 254.425 24.1172 254.227 24.1172ZM257.678 24.0565V20.1715H260.007V20.5888H258.148V21.9015H259.833V22.3189H258.148V24.0565H257.678ZM261.722 24.1172C261.459 24.1172 261.229 24.0546 261.03 23.9294C260.833 23.8042 260.678 23.629 260.567 23.4039C260.457 23.1788 260.402 22.9158 260.402 22.6148C260.402 22.3113 260.457 22.0463 260.567 21.82C260.678 21.5936 260.833 21.4178 261.03 21.2926C261.229 21.1674 261.459 21.1048 261.722 21.1048C261.985 21.1048 262.216 21.1674 262.413 21.2926C262.611 21.4178 262.766 21.5936 262.876 21.82C262.987 22.0463 263.043 22.3113 263.043 22.6148C263.043 22.9158 262.987 23.1788 262.876 23.4039C262.766 23.629 262.611 23.8042 262.413 23.9294C262.216 24.0546 261.985 24.1172 261.722 24.1172ZM261.722 23.715C261.922 23.715 262.087 23.6638 262.216 23.5614C262.345 23.4589 262.44 23.3243 262.502 23.1573C262.564 22.9904 262.595 22.8095 262.595 22.6148C262.595 22.42 262.564 22.2386 262.502 22.0704C262.44 21.9022 262.345 21.7662 262.216 21.6625C262.087 21.5588 261.922 21.507 261.722 21.507C261.523 21.507 261.358 21.5588 261.229 21.6625C261.1 21.7662 261.005 21.9022 260.943 22.0704C260.881 22.2386 260.85 22.42 260.85 22.6148C260.85 22.8095 260.881 22.9904 260.943 23.1573C261.005 23.3243 261.1 23.4589 261.229 23.5614C261.358 23.6638 261.523 23.715 261.722 23.715ZM263.726 24.0565V21.1427H264.159V21.5828H264.189C264.242 21.4387 264.338 21.3217 264.477 21.2319C264.616 21.1421 264.773 21.0972 264.948 21.0972C264.981 21.0972 265.022 21.0978 265.071 21.0991C265.12 21.1004 265.158 21.1023 265.183 21.1048V21.5601C265.168 21.5563 265.133 21.5506 265.079 21.543C265.025 21.5341 264.969 21.5297 264.91 21.5297C264.768 21.5297 264.642 21.5594 264.53 21.6189C264.42 21.677 264.333 21.758 264.269 21.8617C264.205 21.9641 264.174 22.0811 264.174 22.2126V24.0565H263.726ZM267.163 21.1427V21.5221H265.653V21.1427H267.163ZM266.093 20.4447H266.541V23.2218C266.541 23.3483 266.559 23.4431 266.596 23.5064C266.634 23.5683 266.682 23.6101 266.74 23.6316C266.8 23.6518 266.862 23.6619 266.928 23.6619C266.977 23.6619 267.018 23.6594 267.05 23.6543C267.081 23.648 267.106 23.6429 267.125 23.6391L267.216 24.0413C267.186 24.0527 267.144 24.0641 267.089 24.0755C267.035 24.0881 266.966 24.0944 266.883 24.0944C266.756 24.0944 266.632 24.0672 266.511 24.0129C266.391 23.9585 266.291 23.8756 266.211 23.7643C266.133 23.6531 266.093 23.5127 266.093 23.3432V20.4447ZM269.673 22.8652V21.1427H270.121V24.0565H269.673V23.5633H269.643C269.574 23.7112 269.468 23.8371 269.324 23.9408C269.18 24.0432 268.998 24.0944 268.778 24.0944C268.596 24.0944 268.434 24.0546 268.292 23.9749C268.15 23.894 268.039 23.7726 267.958 23.6107C267.877 23.4476 267.837 23.242 267.837 22.9942V21.1427H268.284V22.9638C268.284 23.1763 268.344 23.3457 268.463 23.4722C268.583 23.5987 268.736 23.6619 268.922 23.6619C269.033 23.6619 269.146 23.6335 269.261 23.5765C269.378 23.5196 269.475 23.4324 269.554 23.3148C269.633 23.1972 269.673 23.0473 269.673 22.8652ZM271.388 22.3037V24.0565H270.941V21.1427H271.373V21.598H271.411C271.479 21.45 271.583 21.3312 271.722 21.2414C271.861 21.1503 272.041 21.1048 272.261 21.1048C272.458 21.1048 272.631 21.1453 272.779 21.2262C272.927 21.3059 273.042 21.4273 273.124 21.5904C273.206 21.7523 273.247 21.9572 273.247 22.205V24.0565H272.8V22.2354C272.8 22.0065 272.74 21.8282 272.621 21.7004C272.503 21.5715 272.339 21.507 272.132 21.507C271.989 21.507 271.861 21.5379 271.749 21.5999C271.637 21.6619 271.55 21.7523 271.485 21.8712C271.421 21.99 271.388 22.1342 271.388 22.3037ZM275.287 24.1172C275.006 24.1172 274.764 24.0552 274.561 23.9313C274.358 23.8061 274.202 23.6316 274.092 23.4077C273.983 23.1826 273.929 22.9208 273.929 22.6224C273.929 22.3239 273.983 22.0609 274.092 21.8332C274.202 21.6043 274.355 21.426 274.551 21.2983C274.748 21.1693 274.979 21.1048 275.242 21.1048C275.393 21.1048 275.543 21.1301 275.691 21.1807C275.839 21.2313 275.974 21.3135 276.095 21.4273C276.217 21.5398 276.313 21.6891 276.385 21.875C276.458 22.0609 276.494 22.2898 276.494 22.5617V22.7514H274.248V22.3644H276.038C276.038 22.2 276.005 22.0533 275.94 21.9243C275.875 21.7953 275.783 21.6935 275.663 21.6189C275.544 21.5443 275.403 21.507 275.242 21.507C275.063 21.507 274.909 21.5512 274.779 21.6397C274.65 21.727 274.55 21.8408 274.481 21.9812C274.411 22.1216 274.377 22.2721 274.377 22.4327V22.6907C274.377 22.9107 274.415 23.0972 274.49 23.2503C274.568 23.402 274.674 23.5177 274.811 23.5974C274.948 23.6758 275.106 23.715 275.287 23.715C275.405 23.715 275.511 23.6986 275.606 23.6657C275.702 23.6316 275.785 23.581 275.854 23.5139C275.924 23.4457 275.978 23.3609 276.016 23.2598L276.448 23.3812C276.403 23.5279 276.326 23.6569 276.219 23.7681C276.111 23.8782 275.978 23.9642 275.82 24.0261C275.662 24.0868 275.484 24.1172 275.287 24.1172ZM279.883 24.1096C279.661 24.1096 279.46 24.0653 279.282 23.9768C279.104 23.8883 278.961 23.7669 278.853 23.6126C278.746 23.4583 278.687 23.2825 278.677 23.0852H279.132C279.15 23.261 279.23 23.4065 279.371 23.5215C279.514 23.6354 279.685 23.6923 279.883 23.6923C280.043 23.6923 280.184 23.655 280.308 23.5803C280.434 23.5057 280.532 23.4033 280.602 23.273C280.675 23.1415 280.711 22.9929 280.711 22.8272C280.711 22.6578 280.673 22.5067 280.599 22.3739C280.525 22.2398 280.424 22.1342 280.295 22.0571C280.166 21.9799 280.019 21.9407 279.853 21.9395C279.734 21.9382 279.612 21.9565 279.487 21.9945C279.362 22.0311 279.259 22.0786 279.178 22.1367L278.738 22.0836L278.973 20.1715H280.991V20.5888H279.368L279.231 21.7346H279.254C279.333 21.6714 279.433 21.6189 279.553 21.5771C279.674 21.5354 279.799 21.5145 279.929 21.5145C280.167 21.5145 280.379 21.5715 280.564 21.6853C280.752 21.7978 280.898 21.9521 281.005 22.1481C281.112 22.3441 281.166 22.568 281.166 22.8197C281.166 23.0675 281.11 23.2888 280.999 23.4836C280.889 23.6771 280.737 23.8301 280.544 23.9427C280.35 24.054 280.13 24.1096 279.883 24.1096ZM283.187 24.1096C282.901 24.1096 282.657 24.0318 282.456 23.8763C282.255 23.7195 282.101 23.4924 281.995 23.1953C281.889 22.8968 281.836 22.5364 281.836 22.114C281.836 21.6941 281.889 21.3356 281.995 21.0384C282.103 20.7399 282.257 20.5123 282.458 20.3555C282.66 20.1974 282.903 20.1184 283.187 20.1184C283.47 20.1184 283.712 20.1974 283.913 20.3555C284.115 20.5123 284.27 20.7399 284.376 21.0384C284.483 21.3356 284.537 21.6941 284.537 22.114C284.537 22.5364 284.484 22.8968 284.378 23.1953C284.272 23.4924 284.118 23.7195 283.917 23.8763C283.716 24.0318 283.472 24.1096 283.187 24.1096ZM283.187 23.6923C283.47 23.6923 283.69 23.5557 283.847 23.2825C284.004 23.0094 284.082 22.6198 284.082 22.114C284.082 21.7776 284.046 21.4911 283.974 21.2547C283.903 21.0182 283.801 20.838 283.666 20.714C283.534 20.5901 283.374 20.5281 283.187 20.5281C282.906 20.5281 282.686 20.6666 282.528 20.9436C282.37 21.2192 282.291 21.6094 282.291 22.114C282.291 22.4504 282.327 22.7362 282.397 22.9714C282.468 23.2066 282.57 23.3856 282.703 23.5083C282.837 23.6309 282.998 23.6923 283.187 23.6923ZM286.525 24.1096C286.239 24.1096 285.996 24.0318 285.795 23.8763C285.594 23.7195 285.44 23.4924 285.334 23.1953C285.228 22.8968 285.175 22.5364 285.175 22.114C285.175 21.6941 285.228 21.3356 285.334 21.0384C285.441 20.7399 285.596 20.5123 285.797 20.3555C285.999 20.1974 286.242 20.1184 286.525 20.1184C286.809 20.1184 287.051 20.1974 287.252 20.3555C287.454 20.5123 287.608 20.7399 287.715 21.0384C287.822 21.3356 287.876 21.6941 287.876 22.114C287.876 22.5364 287.823 22.8968 287.717 23.1953C287.61 23.4924 287.457 23.7195 287.256 23.8763C287.054 24.0318 286.811 24.1096 286.525 24.1096ZM286.525 23.6923C286.809 23.6923 287.029 23.5557 287.185 23.2825C287.342 23.0094 287.421 22.6198 287.421 22.114C287.421 21.7776 287.385 21.4911 287.312 21.2547C287.242 21.0182 287.139 20.838 287.005 20.714C286.872 20.5901 286.712 20.5281 286.525 20.5281C286.244 20.5281 286.025 20.6666 285.867 20.9436C285.709 21.2192 285.63 21.6094 285.63 22.114C285.63 22.4504 285.665 22.7362 285.736 22.9714C285.807 23.2066 285.909 23.3856 286.042 23.5083C286.176 23.6309 286.337 23.6923 286.525 23.6923ZM289.742 23.3736V20.8696H290.167V23.3736H289.742ZM288.703 22.334V21.9091H291.207V22.334H288.703ZM294.812 24.1172C294.539 24.1172 294.303 24.0527 294.106 23.9237C293.909 23.7947 293.757 23.617 293.651 23.3906C293.544 23.1643 293.491 22.9057 293.491 22.6148C293.491 22.3189 293.546 22.0577 293.655 21.8313C293.765 21.6037 293.918 21.426 294.114 21.2983C294.311 21.1693 294.541 21.1048 294.804 21.1048C295.009 21.1048 295.194 21.1427 295.358 21.2186C295.522 21.2945 295.657 21.4007 295.762 21.5373C295.867 21.6739 295.932 21.8332 295.957 22.0153H295.51C295.476 21.8826 295.4 21.7649 295.282 21.6625C295.166 21.5588 295.009 21.507 294.812 21.507C294.637 21.507 294.484 21.5525 294.353 21.6435C294.222 21.7333 294.121 21.8604 294.047 22.0248C293.975 22.188 293.939 22.3796 293.939 22.5996C293.939 22.8247 293.974 23.0207 294.045 23.1877C294.117 23.3546 294.219 23.4842 294.349 23.5765C294.48 23.6689 294.635 23.715 294.812 23.715C294.928 23.715 295.034 23.6948 295.128 23.6543C295.223 23.6139 295.304 23.5557 295.369 23.4798C295.435 23.4039 295.482 23.3129 295.51 23.2066H295.957C295.932 23.3786 295.87 23.5335 295.77 23.6714C295.671 23.808 295.54 23.9167 295.377 23.9977C295.215 24.0773 295.027 24.1172 294.812 24.1172ZM297.06 20.1715V24.0565H296.612V20.1715H297.06ZM297.88 24.0565V21.1427H298.327V24.0565H297.88ZM298.107 20.6571C298.02 20.6571 297.945 20.6274 297.881 20.568C297.819 20.5085 297.788 20.4371 297.788 20.3536C297.788 20.2701 297.819 20.1987 297.881 20.1392C297.945 20.0798 298.02 20.0501 298.107 20.0501C298.194 20.0501 298.269 20.0798 298.331 20.1392C298.394 20.1987 298.426 20.2701 298.426 20.3536C298.426 20.4371 298.394 20.5085 298.331 20.568C298.269 20.6274 298.194 20.6571 298.107 20.6571ZM300.369 24.1172C300.088 24.1172 299.846 24.0552 299.642 23.9313C299.44 23.8061 299.284 23.6316 299.174 23.4077C299.065 23.1826 299.011 22.9208 299.011 22.6224C299.011 22.3239 299.065 22.0609 299.174 21.8332C299.284 21.6043 299.437 21.426 299.633 21.2983C299.83 21.1693 300.06 21.1048 300.323 21.1048C300.475 21.1048 300.625 21.1301 300.773 21.1807C300.921 21.2313 301.056 21.3135 301.177 21.4273C301.298 21.5398 301.395 21.6891 301.467 21.875C301.539 22.0609 301.575 22.2898 301.575 22.5617V22.7514H299.329V22.3644H301.12C301.12 22.2 301.087 22.0533 301.021 21.9243C300.957 21.7953 300.865 21.6935 300.744 21.6189C300.626 21.5443 300.485 21.507 300.323 21.507C300.145 21.507 299.991 21.5512 299.86 21.6397C299.731 21.727 299.632 21.8408 299.563 21.9812C299.493 22.1216 299.458 22.2721 299.458 22.4327V22.6907C299.458 22.9107 299.496 23.0972 299.572 23.2503C299.649 23.402 299.756 23.5177 299.893 23.5974C300.029 23.6758 300.188 23.715 300.369 23.715C300.486 23.715 300.593 23.6986 300.688 23.6657C300.784 23.6316 300.866 23.581 300.936 23.5139C301.006 23.4457 301.059 23.3609 301.097 23.2598L301.53 23.3812C301.484 23.5279 301.408 23.6569 301.3 23.7681C301.193 23.8782 301.06 23.9642 300.902 24.0261C300.744 24.0868 300.566 24.1172 300.369 24.1172ZM302.704 22.3037V24.0565H302.256V21.1427H302.689V21.598H302.727C302.795 21.45 302.899 21.3312 303.038 21.2414C303.177 21.1503 303.357 21.1048 303.577 21.1048C303.774 21.1048 303.947 21.1453 304.094 21.2262C304.242 21.3059 304.358 21.4273 304.44 21.5904C304.522 21.7523 304.563 21.9572 304.563 22.205V24.0565H304.115V22.2354C304.115 22.0065 304.056 21.8282 303.937 21.7004C303.818 21.5715 303.655 21.507 303.448 21.507C303.305 21.507 303.177 21.5379 303.064 21.5999C302.953 21.6619 302.865 21.7523 302.801 21.8712C302.736 21.99 302.704 22.1342 302.704 22.3037ZM306.648 21.1427V21.5221H305.138V21.1427H306.648ZM305.578 20.4447H306.026V23.2218C306.026 23.3483 306.044 23.4431 306.081 23.5064C306.119 23.5683 306.167 23.6101 306.225 23.6316C306.285 23.6518 306.347 23.6619 306.413 23.6619C306.462 23.6619 306.503 23.6594 306.534 23.6543C306.566 23.648 306.591 23.6429 306.61 23.6391L306.701 24.0413C306.671 24.0527 306.629 24.0641 306.574 24.0755C306.52 24.0881 306.451 24.0944 306.368 24.0944C306.241 24.0944 306.117 24.0672 305.996 24.0129C305.876 23.9585 305.776 23.8756 305.696 23.7643C305.618 23.6531 305.578 23.5127 305.578 23.3432V20.4447ZM309.333 21.7953L308.931 21.9091C308.906 21.8421 308.869 21.777 308.819 21.7137C308.771 21.6492 308.706 21.5961 308.622 21.5544C308.539 21.5126 308.432 21.4918 308.301 21.4918C308.123 21.4918 307.975 21.5329 307.856 21.6151C307.738 21.696 307.679 21.7991 307.679 21.9243C307.679 22.0356 307.72 22.1235 307.801 22.188C307.882 22.2525 308.008 22.3062 308.18 22.3492L308.613 22.4554C308.873 22.5187 309.067 22.6154 309.195 22.7457C309.323 22.8747 309.387 23.041 309.387 23.2446C309.387 23.4115 309.338 23.5607 309.242 23.6923C309.148 23.8238 309.015 23.9275 308.844 24.0034C308.673 24.0792 308.475 24.1172 308.248 24.1172C307.951 24.1172 307.705 24.0527 307.51 23.9237C307.316 23.7947 307.192 23.6063 307.141 23.3584L307.565 23.2522C307.606 23.409 307.682 23.5266 307.795 23.605C307.909 23.6834 308.057 23.7226 308.241 23.7226C308.449 23.7226 308.615 23.6784 308.738 23.5898C308.862 23.5 308.924 23.3925 308.924 23.2673C308.924 23.1662 308.888 23.0814 308.817 23.0131C308.747 22.9436 308.638 22.8917 308.491 22.8576L308.006 22.7438C307.739 22.6805 307.543 22.5825 307.417 22.4497C307.294 22.3157 307.232 22.1481 307.232 21.9471C307.232 21.7826 307.278 21.6372 307.37 21.5107C307.464 21.3843 307.591 21.285 307.751 21.2129C307.913 21.1408 308.097 21.1048 308.301 21.1048C308.59 21.1048 308.816 21.168 308.981 21.2945C309.146 21.421 309.264 21.5879 309.333 21.7953Z" fill="#717171"/>
<g clip-path="url(#clip0_2_837)">
<path fill-rule="evenodd" clip-rule="evenodd" d="M52.7509 42.0804C54.5947 42.0804 56.0895 43.5752 56.0895 45.4191V42.0804H59.4282C61.2721 42.0804 62.7669 43.5752 62.7669 45.4191C62.7669 47.263 61.2721 48.7577 59.4282 48.7577C61.2721 48.7577 62.7669 50.2525 62.7669 52.0964C62.7669 53.012 62.3983 53.8415 61.8015 54.4446L61.789 54.4572L61.7779 54.4682C61.1746 55.0659 60.3445 55.4351 59.4282 55.4351C58.5181 55.4351 57.6931 55.0709 57.0908 54.4804C57.083 54.4727 57.0752 54.465 57.0674 54.4572C57.0601 54.4499 57.0528 54.4426 57.0456 54.4352C56.4543 53.8328 56.0895 53.0072 56.0895 52.0964C56.0895 53.9403 54.5947 55.4351 52.7509 55.4351C50.907 55.4351 49.4122 53.9403 49.4122 52.0964V48.7577H52.7509C50.907 48.7577 49.4122 47.263 49.4122 45.4191C49.4122 43.5752 50.907 42.0804 52.7509 42.0804ZM55.4218 45.4191C55.4218 46.8942 54.226 48.09 52.7509 48.09V42.7481C54.226 42.7481 55.4218 43.944 55.4218 45.4191ZM62.0991 52.0964C62.0991 50.6213 60.9033 49.4255 59.4282 49.4255C57.9531 49.4255 56.7573 50.6213 56.7573 52.0964H62.0991ZM50.0799 49.4255V52.0964C50.0799 53.5715 51.2758 54.7673 52.7509 54.7673C54.226 54.7673 55.4218 53.5715 55.4218 52.0964V49.4255H50.0799ZM56.7573 48.09V42.7481H59.4282C60.9033 42.7481 62.0991 43.944 62.0991 45.4191C62.0991 46.8942 60.9033 48.09 59.4282 48.09H56.7573Z" fill="#263238"/>
</g>
<g clip-path="url(#clip1_2_837)">
<path fill-rule="evenodd" clip-rule="evenodd" d="M114.178 45.4062L110.844 48.7066C111.511 49.3668 112.272 49.9231 113.103 50.3584C113.332 50.9612 113.692 51.5266 114.182 52.0117C116.026 53.8371 119.016 53.8371 120.86 52.0117C121.35 51.5266 121.71 50.9612 121.939 50.3584C122.77 49.9231 123.531 49.3668 124.198 48.7066L120.867 45.4089C120.865 45.4064 120.862 45.404 120.86 45.4015C119.016 43.5761 116.026 43.5761 114.182 45.4015C114.181 45.4031 114.179 45.4046 114.178 45.4062ZM120.541 50.9538C119.569 51.2784 118.549 51.4447 117.521 51.4447C116.493 51.4447 115.473 51.2784 114.501 50.9538C114.607 51.0921 114.723 51.2248 114.85 51.3507C116.325 52.811 118.717 52.811 120.192 51.3507C120.319 51.2248 120.435 51.0921 120.541 50.9538ZM114.919 45.9964C115.169 46.1602 115.435 46.3004 115.714 46.4147C116.287 46.6496 116.901 46.7705 117.521 46.7705C118.141 46.7705 118.755 46.6496 119.328 46.4147C119.607 46.3004 119.873 46.1602 120.123 45.9964C118.667 44.6243 116.375 44.6243 114.919 45.9964Z" fill="#3B4158"/>
</g>
<g clip-path="url(#clip2_2_837)">
<path d="M188.299 47.2608C188.301 47.2469 188.301 47.2328 188.299 47.2189C188.301 47.2076 188.301 47.196 188.299 47.1846L188.163 46.2055C188.144 46.0884 188.091 45.9789 188.012 45.8893L187.988 45.8626L187.946 45.8207L185.591 43.832L185.657 43.8968C185.603 43.8334 185.535 43.7827 185.458 43.7484C185.381 43.7141 185.298 43.6971 185.214 43.6987H184.499C184.382 43.6964 184.269 43.7327 184.176 43.8016C184.079 43.7331 183.962 43.697 183.842 43.6987H183.127C183.033 43.6972 182.941 43.72 182.859 43.7648C182.777 43.8097 182.708 43.8749 182.661 43.9539C182.587 44.0668 182.559 44.2029 182.583 44.3349L182.672 44.9521C182.613 44.9192 182.546 44.9021 182.478 44.9026H179.015C178.891 44.9034 178.77 44.939 178.666 45.0054C178.565 45.0673 178.484 45.1557 178.432 45.2607L178.164 45.0359C178.059 44.9402 177.919 44.8883 177.776 44.8912H172.343C172.218 44.8934 172.096 44.9275 171.989 44.9902C171.843 45.0742 171.736 45.2109 171.69 45.3712L169.965 51.0287C169.932 51.1219 169.929 51.2225 169.956 51.3175C169.982 51.4124 170.037 51.4976 170.112 51.5621C170.132 51.5785 170.153 51.5938 170.175 51.6078C170.175 51.6078 170.14 51.5849 170.12 51.5659L172.475 53.5584C172.575 53.6483 172.705 53.6986 172.84 53.6993H178.316C178.441 53.6962 178.563 53.6607 178.67 53.5965C178.73 53.5642 178.784 53.5216 178.829 53.4708L178.848 53.4441L178.879 53.406L178.903 53.3641L179.159 53.5813C179.257 53.6676 179.385 53.7151 179.517 53.7146H185.004C185.129 53.7105 185.25 53.6751 185.357 53.6117C185.416 53.5774 185.47 53.5351 185.517 53.486L185.536 53.4593L185.567 53.4212C185.584 53.3971 185.598 53.3716 185.61 53.345C185.623 53.3219 185.633 53.2977 185.641 53.2727L187.215 48.1066V48.0609C187.217 48.0432 187.217 48.0253 187.215 48.0076V47.9733C187.217 47.9619 187.217 47.9503 187.215 47.939C187.217 47.9149 187.217 47.8907 187.215 47.8666H187.72C187.764 47.8705 187.808 47.8705 187.852 47.8666H187.887C187.916 47.8583 187.943 47.8467 187.969 47.8323H188.008L188.078 47.779L188.109 47.7561L188.163 47.6875V47.6647L188.202 47.5999C188.2 47.5873 188.2 47.5744 188.202 47.5618C188.2 47.5556 188.2 47.5489 188.202 47.5428C188.21 47.5204 188.217 47.4975 188.221 47.4742C188.22 47.4667 188.22 47.4588 188.221 47.4513C188.22 47.44 188.22 47.4284 188.221 47.417C188.221 47.417 188.299 47.2684 188.299 47.2608Z" fill="black"/>
<path d="M177.935 45.3254C177.956 45.3437 177.97 45.3678 177.976 45.3943C177.983 45.4209 177.98 45.4487 177.97 45.474L176.249 51.1277C176.227 51.1894 176.182 51.2411 176.124 51.2725C176.077 51.3036 176.022 51.322 175.965 51.3258H170.493C170.447 51.3236 170.402 51.3047 170.369 51.2725C170.349 51.2545 170.335 51.2311 170.329 51.2053C170.323 51.1796 170.324 51.1525 170.334 51.1277L172.059 45.474C172.079 45.4115 172.122 45.3585 172.18 45.3254C172.228 45.2965 172.283 45.2796 172.339 45.2759H177.811C177.857 45.2763 177.901 45.2941 177.935 45.3254ZM175.079 49.9886L176.109 46.6131H173.225L172.199 49.9886H175.079ZM183.158 45.3826C183.177 45.4039 183.2 45.4207 183.226 45.4319C183.252 45.4431 183.281 45.4484 183.309 45.4474H184.021C184.048 45.4476 184.074 45.4411 184.098 45.4284C184.122 45.4158 184.142 45.3974 184.157 45.375C184.169 45.3575 184.178 45.3377 184.183 45.3167C184.188 45.2958 184.188 45.2741 184.184 45.2531L184.044 44.2473C184.031 44.2007 184.007 44.1577 183.974 44.1216C183.955 44.1003 183.932 44.0834 183.906 44.0722C183.88 44.061 183.851 44.0557 183.822 44.0568H183.111C183.084 44.0565 183.058 44.063 183.034 44.0757C183.01 44.0884 182.99 44.1068 182.975 44.1292C182.948 44.1825 182.936 44.2168 182.948 44.2473L183.092 45.2531C183.099 45.302 183.122 45.3474 183.158 45.3826ZM185.416 44.2397C185.402 44.1931 185.378 44.1501 185.346 44.1139C185.328 44.0927 185.305 44.0759 185.28 44.0646C185.254 44.0534 185.226 44.0481 185.198 44.0492H184.483C184.456 44.0484 184.43 44.0548 184.407 44.0675C184.384 44.0802 184.364 44.0989 184.351 44.1216C184.325 44.1553 184.314 44.1978 184.32 44.2397L184.464 45.2454C184.473 45.2939 184.496 45.3388 184.53 45.375C184.549 45.3958 184.572 45.4124 184.598 45.4236C184.624 45.4348 184.653 45.4403 184.681 45.4397H185.396C185.423 45.4401 185.449 45.4336 185.472 45.4209C185.495 45.4082 185.515 45.3897 185.528 45.3673C185.542 45.3503 185.551 45.3305 185.556 45.3094C185.561 45.2883 185.561 45.2665 185.556 45.2454L185.416 44.2397ZM182.532 45.7636L182.462 45.2683H179.015C178.961 45.2712 178.909 45.2883 178.864 45.3178C178.835 45.3331 178.81 45.3543 178.791 45.38C178.771 45.4056 178.758 45.4351 178.751 45.4664L178.464 46.4112C178.452 46.4348 178.448 46.4613 178.452 46.4872C178.456 46.513 178.469 46.537 178.487 46.556C178.52 46.5862 178.562 46.6038 178.607 46.6055H182.797L181.767 49.981H177.589C177.535 49.9822 177.483 49.998 177.438 50.0267C177.383 50.0609 177.343 50.1138 177.325 50.1753L177.033 51.1201C177.024 51.1444 177.021 51.1707 177.026 51.1962C177.031 51.2218 177.043 51.2455 177.061 51.2649C177.092 51.2971 177.136 51.3162 177.181 51.3182H182.668C182.725 51.3134 182.78 51.2951 182.828 51.2649C182.885 51.2333 182.928 51.1816 182.948 51.1201L184.526 45.9541H182.75C182.722 45.9546 182.694 45.9495 182.668 45.939C182.642 45.9285 182.618 45.9129 182.598 45.8931C182.566 45.8585 182.543 45.8166 182.532 45.7712V45.7636Z" fill="white"/>
</g>
<g clip-path="url(#clip3_2_837)">
<path d="M247.394 45.2226C247.394 45.2339 247.394 45.248 247.391 45.2565C247.376 45.3665 247.376 45.4766 247.385 45.5895C247.391 45.6177 247.397 45.6459 247.42 45.6685C247.459 45.7108 247.517 45.7024 247.541 45.6516C247.553 45.6262 247.553 45.6008 247.547 45.5754C247.517 45.4681 247.511 45.3552 247.509 45.2452C247.509 45.2395 247.509 45.231 247.509 45.2226C247.541 45.2198 247.57 45.2169 247.597 45.2169C247.617 45.2141 247.635 45.2113 247.65 45.2028C247.694 45.1802 247.694 45.1323 247.647 45.1097C247.629 45.1012 247.606 45.0984 247.585 45.0984C247.511 45.1012 247.438 45.1012 247.364 45.1012C247.338 45.1012 247.312 45.104 247.285 45.1069C247.27 45.1097 247.253 45.1097 247.241 45.1182C247.22 45.1266 247.209 45.1407 247.209 45.1605C247.212 45.1802 247.22 45.1915 247.241 45.2C247.253 45.2085 247.267 45.2113 247.282 45.2113C247.317 45.2141 247.356 45.2198 247.394 45.2226ZM248.203 45.3524C248.203 45.3552 248.205 45.3581 248.205 45.3581C248.217 45.4343 248.229 45.5076 248.238 45.581C248.241 45.6064 248.244 45.629 248.261 45.6488C248.3 45.6967 248.358 45.6911 248.385 45.6403C248.397 45.6149 248.4 45.5895 248.394 45.5613C248.376 45.4766 248.367 45.3919 248.35 45.3101C248.338 45.2593 248.323 45.2113 248.308 45.1661C248.3 45.1379 248.279 45.1182 248.244 45.1153C248.208 45.1097 248.182 45.1266 248.167 45.152C248.15 45.1746 248.135 45.1972 248.123 45.2226C248.103 45.2677 248.085 45.3129 248.061 45.3552C248.058 45.3665 248.055 45.375 248.05 45.3835C248.047 45.3778 248.044 45.375 248.044 45.375C248.005 45.3044 247.97 45.2339 247.932 45.1661C247.926 45.1605 247.923 45.1548 247.92 45.1492C247.903 45.1238 247.882 45.1097 247.85 45.1097C247.82 45.1125 247.797 45.1294 247.782 45.1548C247.776 45.1661 247.776 45.1746 247.773 45.1859C247.761 45.2762 247.747 45.3665 247.735 45.4568C247.729 45.5076 247.726 45.5584 247.726 45.6092C247.723 45.6205 247.726 45.6346 247.732 45.6459C247.738 45.6685 247.756 45.6826 247.779 45.6854C247.808 45.6883 247.829 45.6798 247.838 45.6572C247.847 45.6403 247.85 45.6262 247.853 45.6121C247.864 45.5613 247.873 45.5133 247.882 45.4653C247.888 45.4371 247.891 45.4145 247.9 45.3835C247.906 45.3947 247.911 45.4032 247.917 45.4117C247.944 45.4455 247.97 45.4794 248.003 45.5076C248.035 45.5302 248.061 45.5274 248.088 45.502C248.094 45.4963 248.097 45.4935 248.103 45.4879C248.129 45.4484 248.161 45.4089 248.188 45.3693C248.194 45.3637 248.197 45.3581 248.203 45.3524Z" fill="#3A3B7B"/>
<path d="M241.427 45.278C241.407 45.3317 241.403 45.3703 241.412 45.4024C241.422 45.4461 241.45 45.4604 241.486 45.4493C241.832 45.3673 242.589 45.6 242.869 45.6649C242.936 45.6785 242.989 45.5965 242.944 45.5231C242.878 45.4519 242.121 45.1473 241.832 45.1307C241.719 45.1246 241.517 45.0967 241.427 45.278Z" fill="#3A3B7B"/>
<path d="M244.387 44.2921C244.424 44.3125 244.444 44.3319 244.455 44.3536C244.47 44.3821 244.462 44.4019 244.436 44.4119C244.208 44.5189 243.904 44.9793 243.782 45.1381C243.752 45.1746 243.683 45.1534 243.673 45.0933C243.675 45.0254 243.944 44.5257 244.095 44.3897C244.154 44.3365 244.251 44.2323 244.387 44.2921Z" fill="#3A3B7B"/>
<path d="M242.569 44.0654C242.613 44.0334 242.659 44.0222 242.682 44.043C243.027 44.3258 243.21 44.7735 243.323 45.1834C243.327 45.193 243.327 45.2067 243.324 45.221C243.322 45.2332 243.313 45.2461 243.298 45.2561C243.283 45.2671 243.269 45.2705 243.263 45.261C243.112 45.0639 242.249 44.297 242.569 44.0654Z" fill="#3A3B7B"/>
<path d="M235.274 48.9676C235.357 48.9086 235.446 48.8595 235.541 48.8214C235.641 48.7941 235.747 48.7986 235.843 48.8343C235.94 48.8699 236.021 48.9347 236.076 49.0189C236.125 49.1029 236.144 49.1998 236.13 49.2952C236.117 49.3905 236.072 49.479 236.001 49.5474C235.946 49.6029 235.884 49.6512 235.817 49.6911C235.515 49.8784 235.21 50.0554 234.905 50.2427C234.843 50.2895 234.777 50.3316 234.707 50.3684C234.602 50.4188 234.482 50.4323 234.367 50.4066C234.252 50.3808 234.15 50.3174 234.079 50.2273C234.026 50.1635 233.981 50.0937 233.946 50.0195C233.657 49.4371 233.358 48.8573 233.08 48.2647C232.951 48.0081 232.847 47.7131 232.745 47.4283C232.701 47.3456 232.693 47.2497 232.722 47.1609C232.75 47.0722 232.814 46.9977 232.899 46.9533C232.984 46.9088 233.083 46.8979 233.176 46.9229C233.27 46.9479 233.349 47.0068 233.398 47.0871C233.547 47.2778 233.679 47.4804 233.793 47.6926C234.082 48.2057 234.357 48.7188 234.635 49.2165C234.651 49.244 234.669 49.2705 234.689 49.296C234.898 49.2116 235.095 49.1012 235.274 48.9676Z" fill="#3A3B7B"/>
<path d="M238.259 48.7886C237.599 49.53 236.492 49.3428 235.936 48.3884C235.54 47.7111 235.471 46.5926 236.332 45.8871C236.515 45.7394 236.735 45.6387 236.97 45.5946C237.259 45.5549 237.553 45.6038 237.811 45.7341C238.069 45.8645 238.277 46.0698 238.406 46.3206C238.876 47.1416 238.81 48.1883 238.259 48.7886ZM237.992 47.0595C237.921 46.8578 237.781 46.6855 237.593 46.572C237.487 46.4995 237.358 46.4642 237.228 46.4722C237.098 46.4801 236.975 46.5308 236.88 46.6157C236.497 46.9415 236.417 47.7137 236.695 48.1729C236.731 48.2478 236.783 48.3143 236.848 48.3679C236.913 48.4215 236.989 48.4607 237.072 48.483C237.154 48.5052 237.241 48.5099 237.325 48.4967C237.41 48.4834 237.49 48.4526 237.561 48.4064C237.768 48.2522 237.92 48.0399 237.996 47.799C238.072 47.558 238.067 47.3005 237.984 47.0621L237.992 47.0595Z" fill="#3A3B7B"/>
<path d="M240.953 47.3827C240.886 47.3967 240.816 47.3975 240.748 47.3852C240.68 47.3728 240.615 47.3476 240.558 47.3109C240.507 47.2832 240.464 47.2452 240.431 47.1995C240.397 47.1538 240.375 47.1016 240.365 47.0466C240.356 46.9917 240.359 46.9353 240.374 46.8817C240.39 46.828 240.418 46.7783 240.456 46.7362C240.522 46.6516 240.617 46.5911 240.723 46.5644C241.002 46.4867 241.289 46.4394 241.579 46.4233C241.642 46.4162 241.707 46.4213 241.768 46.4385C241.83 46.4556 241.887 46.4844 241.937 46.5231C241.987 46.5618 242.028 46.6097 242.058 46.6639C242.089 46.7181 242.107 46.7776 242.113 46.8389C242.197 47.1397 242.206 47.4551 242.14 47.7599C241.9 48.745 241.071 49.0836 240.141 48.7681C239.88 48.6837 239.651 48.5265 239.483 48.3166C239.26 48.0637 239.101 47.7641 239.021 47.4418C238.955 47.1547 238.963 46.8568 239.042 46.573C239.121 46.2892 239.269 46.0276 239.475 45.8101C239.67 45.5737 239.924 45.3877 240.213 45.2688C240.395 45.1722 240.609 45.1448 240.812 45.1918C240.858 45.204 240.899 45.2278 240.932 45.2607C240.966 45.2936 240.989 45.3344 241 45.3789C241.011 45.4234 241.01 45.47 240.996 45.5138C240.982 45.5576 240.956 45.597 240.921 45.628C240.854 45.686 240.782 45.7375 240.705 45.7819C240.467 45.9271 240.26 46.1143 240.095 46.3335C239.987 46.4753 239.913 46.6381 239.877 46.8105C239.841 46.983 239.846 47.1608 239.889 47.3314C239.95 47.5642 240.085 47.7731 240.274 47.9292C240.862 48.4423 241.627 47.9471 241.493 47.2468C241.298 47.293 241.127 47.3417 240.953 47.3827Z" fill="#3A3B7B"/>
<path d="M244.546 48.8297C243.677 49.3428 242.688 48.8297 242.472 47.7522C242.314 46.9825 242.613 45.905 243.661 45.4945C243.884 45.4091 244.126 45.3791 244.364 45.4073C244.65 45.4576 244.913 45.5929 245.115 45.794C245.317 45.9951 245.448 46.252 245.489 46.5284C245.666 47.4443 245.265 48.4217 244.546 48.8297ZM244.848 47.1031C244.848 46.89 244.769 46.6837 244.626 46.5207C244.55 46.4199 244.439 46.3477 244.313 46.3163C244.187 46.285 244.054 46.2965 243.936 46.3488C243.466 46.5438 243.134 47.2519 243.255 47.7727C243.264 47.8544 243.292 47.9332 243.336 48.0036C243.38 48.074 243.44 48.1343 243.511 48.1802C243.582 48.2262 243.662 48.2567 243.747 48.2696C243.832 48.2825 243.918 48.2775 244 48.255C244.249 48.1716 244.464 48.0158 244.616 47.8093C244.768 47.6028 244.849 47.3559 244.848 47.1031Z" fill="#3A3B7B"/>
<path d="M246.368 49.0452C246.355 49.1391 246.303 49.2241 246.225 49.2816C246.146 49.3391 246.047 49.3643 245.95 49.3518C245.852 49.3392 245.763 49.2898 245.703 49.2145C245.643 49.1392 245.617 49.0441 245.63 48.9502C245.643 48.8564 245.695 48.7713 245.773 48.7138C245.852 48.6563 245.951 48.6311 246.048 48.6437C246.146 48.6563 246.235 48.7056 246.295 48.7809C246.355 48.8562 246.381 48.9513 246.368 49.0452ZM246.135 45.5843C246.186 45.5098 246.261 45.4531 246.348 45.4226C246.435 45.392 246.53 45.3894 246.619 45.415C246.709 45.4367 246.789 45.4876 246.845 45.559C246.901 45.6305 246.93 45.7182 246.927 45.8075C246.915 45.9508 246.892 46.0931 246.86 46.2334C246.771 46.708 246.686 47.1826 246.592 47.6521C246.55 47.8394 246.493 48.019 246.432 48.2088C246.411 48.2682 246.375 48.3218 246.328 48.3653C246.298 48.3981 246.261 48.4232 246.219 48.4383C246.177 48.4535 246.131 48.4582 246.087 48.4521C246.042 48.446 246 48.4292 245.964 48.4032C245.928 48.3773 245.9 48.3431 245.881 48.3037C245.85 48.2332 245.832 48.1574 245.831 48.0806C245.831 47.7624 245.831 47.4418 245.852 47.1211C245.888 46.6634 245.96 46.2089 246.066 45.7614C246.078 45.7014 246.102 45.6441 246.135 45.592V45.5843Z" fill="#3A3B7B"/>
<path fill-rule="evenodd" clip-rule="evenodd" d="M234.145 51.1068C234.113 51.1744 234.105 51.2498 234.12 51.3223C234.13 51.4179 234.153 51.512 234.187 51.6024C234.23 51.713 234.278 51.8224 234.337 51.9573C234.35 51.9883 234.365 52.0207 234.38 52.0548C234.459 52.2375 234.559 52.4709 234.692 52.8088C234.73 52.9048 234.764 53.0016 234.798 53.099C234.811 53.1384 234.825 53.1779 234.839 53.2175C234.889 53.3582 234.975 53.4846 235.09 53.5849C235.139 53.6399 235.203 53.6801 235.275 53.7001C235.349 53.7206 235.427 53.7193 235.5 53.6964C235.573 53.6735 235.637 53.6301 235.684 53.5717C235.73 53.5145 235.758 53.4456 235.763 53.3736C235.793 53.2334 235.783 53.0879 235.733 52.9527C235.655 52.7282 235.567 52.5034 235.464 52.2834L235.464 52.2825C235.295 51.9384 235.124 51.5967 234.944 51.2549L234.943 51.2525C234.891 51.1634 234.822 51.0838 234.741 51.0172C234.689 50.9578 234.616 50.9177 234.536 50.9039C234.455 50.8898 234.37 50.904 234.299 50.944C234.231 50.9813 234.177 51.0382 234.145 51.1068Z" fill="#3A3B7B"/>
<path fill-rule="evenodd" clip-rule="evenodd" d="M236.719 50.2595C236.455 50.1938 236.179 50.1843 235.91 50.2315C235.702 50.2511 235.498 50.2972 235.356 50.3884C235.283 50.4348 235.225 50.4943 235.193 50.5701C235.16 50.6462 235.156 50.7333 235.182 50.8304C235.231 51.0081 235.295 51.181 235.358 51.3532L235.368 51.3811L235.369 51.3818C235.559 51.8822 235.751 52.381 235.945 52.8781C235.968 52.9564 236 53.032 236.04 53.1033L236.041 53.1046C236.095 53.1931 236.164 53.2723 236.245 53.3388C236.286 53.3754 236.336 53.4007 236.391 53.412C236.446 53.4234 236.503 53.4201 236.556 53.4024C236.609 53.3848 236.656 53.3534 236.692 53.3118C236.728 53.2708 236.751 53.2215 236.759 53.169C236.794 53.0264 236.783 52.8768 236.727 52.7405C236.71 52.6946 236.696 52.6477 236.681 52.5984C236.677 52.5819 236.672 52.5652 236.667 52.5481C237.111 52.3815 237.583 52.1575 237.749 51.6365C237.814 51.4564 237.82 51.2614 237.765 51.0782C237.71 50.8949 237.597 50.7324 237.442 50.613C237.23 50.446 236.984 50.3254 236.719 50.2595ZM235.986 50.8986C235.995 50.8962 236.004 50.894 236.013 50.8919C236.302 50.8483 236.598 50.9064 236.845 51.0555C236.955 51.1284 237 51.2095 237.007 51.2875C237.015 51.3678 236.985 51.4548 236.924 51.5384C236.808 51.6964 236.597 51.8229 236.407 51.8464C236.268 51.5397 236.127 51.2206 235.986 50.8986Z" fill="#3A3B7B"/>
<path d="M238.48 49.6981C238.795 49.5586 239.185 49.5345 239.49 49.6326C239.567 49.6541 239.633 49.7005 239.679 49.764C239.723 49.8271 239.744 49.9031 239.737 49.9791C239.737 50.0285 239.724 50.077 239.7 50.1208C239.676 50.1654 239.641 50.2037 239.598 50.2326C239.555 50.2614 239.506 50.28 239.454 50.2866C239.402 50.2932 239.349 50.2878 239.3 50.2707L239.296 50.2694L239.293 50.2676C239.268 50.2549 239.241 50.2454 239.213 50.2392L239.211 50.2388C238.997 50.1841 238.794 50.2748 238.721 50.3861C238.685 50.4392 238.681 50.4928 238.71 50.5416C238.742 50.5938 238.819 50.6524 238.975 50.6942C239.018 50.7055 239.062 50.7164 239.106 50.7275C239.23 50.7582 239.358 50.79 239.482 50.8342L239.483 50.8344C240.055 51.0433 240.268 51.4761 240.195 51.8832C240.123 52.2857 239.773 52.652 239.246 52.7384C239.054 52.7792 238.855 52.7713 238.667 52.7154C238.479 52.6594 238.31 52.5571 238.176 52.4187L238.172 52.4151C238.13 52.363 238.101 52.3017 238.089 52.2368C238.077 52.1781 238.083 52.1175 238.106 52.0621C238.129 52.007 238.168 51.9593 238.218 51.9246C238.271 51.8852 238.335 51.8615 238.402 51.8566C238.468 51.8517 238.535 51.8656 238.593 51.8965C238.652 51.9236 238.706 51.9581 238.755 51.9992L238.756 51.9999C238.842 52.0756 238.946 52.0953 239.046 52.0771C239.148 52.0585 239.243 52.0009 239.305 51.9244C239.366 51.8484 239.39 51.7582 239.361 51.6706C239.332 51.5823 239.244 51.4834 239.051 51.4007C239 51.3802 238.948 51.3636 238.893 51.3474C238.879 51.3431 238.864 51.3387 238.849 51.3343C238.808 51.3226 238.767 51.3105 238.726 51.2972C238.698 51.2881 238.671 51.2794 238.643 51.2708C238.568 51.2473 238.495 51.2244 238.424 51.1937C238.271 51.1436 238.138 51.0473 238.046 50.9192C237.954 50.7906 237.908 50.6367 237.914 50.4807C237.915 50.1004 238.164 49.8384 238.48 49.6981Z" fill="#3A3B7B"/>
<path d="M242.47 49.6576C242.409 49.629 242.342 49.6154 242.274 49.6181C242.206 49.6207 242.14 49.6396 242.081 49.6729C242.023 49.706 241.975 49.7524 241.94 49.8078C241.908 49.8545 241.886 49.9068 241.875 49.9616C241.864 50.0165 241.864 50.0728 241.876 50.1275C241.887 50.1978 241.9 50.2661 241.912 50.3335C241.933 50.445 241.953 50.5541 241.966 50.6652L241.967 50.6681C241.997 50.8424 242.013 51.0187 242.014 51.1954L242.014 51.1979C242.024 51.3888 241.957 51.5759 241.825 51.7196L241.823 51.7221C241.781 51.7746 241.723 51.8147 241.658 51.8379C241.593 51.8611 241.523 51.8664 241.455 51.8533C241.387 51.8402 241.324 51.8091 241.273 51.7637C241.222 51.7182 241.186 51.6599 241.167 51.5956C241.128 51.4601 241.106 51.3208 241.1 51.1803L241.167 50.1623C241.168 50.149 241.169 50.1354 241.17 50.1216C241.172 50.0907 241.175 50.0592 241.176 50.0298C241.178 49.9866 241.176 49.9421 241.166 49.9001C241.155 49.8571 241.135 49.8162 241.098 49.7813C241.063 49.7469 241.014 49.7214 240.953 49.7041C240.843 49.6735 240.75 49.6745 240.672 49.7061C240.595 49.7377 240.541 49.7964 240.504 49.8642C240.466 49.9315 240.442 50.0111 240.424 50.0908C240.411 50.15 240.4 50.2121 240.39 50.2713C240.386 50.2916 240.382 50.3116 240.379 50.3311L240.379 50.3316C240.324 50.6559 240.307 50.9851 240.33 51.313C240.334 51.4901 240.373 51.665 240.444 51.8286C240.523 52.0398 240.668 52.2228 240.859 52.3534C241.05 52.4842 241.277 52.5563 241.512 52.5601C241.746 52.5639 241.977 52.4993 242.172 52.3747C242.367 52.2503 242.518 52.072 242.606 51.8634C242.728 51.5977 242.785 51.3088 242.773 51.0186C242.766 50.8067 242.754 50.5932 242.742 50.3808C242.736 50.2766 242.73 50.1726 242.725 50.0693C242.722 49.9657 242.687 49.8653 242.623 49.7817C242.584 49.7288 242.531 49.6861 242.47 49.6576Z" fill="#3A3B7B"/>
<path d="M244.63 51.2539C244.624 51.2614 244.617 51.2692 244.61 51.2773C244.561 51.0025 244.515 50.7278 244.469 50.4527C244.452 50.354 244.435 50.2549 244.419 50.156L244.417 50.145L244.411 50.1355C244.399 50.1175 244.398 50.0999 244.398 50.0624V50.0581L244.397 50.0538C244.385 49.9764 244.348 49.9043 244.293 49.8471C244.237 49.79 244.165 49.7502 244.085 49.733C244.006 49.7142 243.923 49.7183 243.846 49.7449C243.769 49.7713 243.702 49.8189 243.654 49.8816C243.613 49.9298 243.58 49.9831 243.555 50.0402C243.499 50.1631 243.442 50.2862 243.385 50.4097L243.384 50.4119C243.242 50.7202 243.098 51.0307 242.959 51.3435L242.959 51.3445C242.873 51.5474 242.803 51.7612 242.733 51.9742C242.719 52.0168 242.705 52.0593 242.69 52.1017C242.665 52.1689 242.654 52.2404 242.658 52.3118C242.653 52.3757 242.669 52.4395 242.703 52.4945C242.739 52.5506 242.791 52.5947 242.854 52.6207C242.92 52.6486 242.994 52.6545 243.064 52.6375C243.134 52.6206 243.197 52.5818 243.241 52.5272C243.298 52.46 243.347 52.3866 243.387 52.309C243.505 52.0775 243.618 51.8433 243.73 51.61C243.773 51.5198 243.815 51.439 243.863 51.351C243.867 51.3618 243.87 51.3724 243.873 51.383C243.924 51.5955 244.009 51.799 244.125 51.9861C244.147 52.0257 244.178 52.0603 244.215 52.0876C244.252 52.1152 244.296 52.1346 244.342 52.1444C244.388 52.1542 244.436 52.1543 244.483 52.1445C244.529 52.1348 244.572 52.1154 244.61 52.0879L244.685 52.0344L245.264 51.5664L245.229 51.7758C245.182 52.0636 245.136 52.349 245.086 52.6344C245.054 52.761 245.054 52.8931 245.086 53.0196C245.1 53.0908 245.136 53.1563 245.189 53.2079C245.243 53.2598 245.311 53.2951 245.386 53.3092C245.461 53.3233 245.538 53.3155 245.608 53.2868C245.677 53.2586 245.736 53.2113 245.777 53.1512C245.872 53.0375 245.932 52.8999 245.948 52.7547C245.973 52.5497 246 52.3419 246.028 52.1342C246.06 51.8948 246.092 51.6554 246.119 51.4207L246.119 51.4199C246.145 51.1629 246.158 50.9049 246.157 50.6467C246.163 50.5651 246.141 50.4838 246.096 50.4143C246.051 50.3446 245.984 50.2904 245.905 50.2594C245.822 50.2235 245.73 50.2138 245.642 50.232C245.554 50.2501 245.474 50.2946 245.414 50.359C245.308 50.4538 245.207 50.5552 245.115 50.6626L245.114 50.6633C245.012 50.7846 244.912 50.9083 244.812 51.0312C244.751 51.1059 244.69 51.1805 244.63 51.2539Z" fill="#3A3B7B"/>
</g>
<g clip-path="url(#clip4_2_837)">
<path d="M307.971 44.648C307.971 44.8036 308.099 44.9297 308.256 44.9297H308.541C308.699 44.9297 308.826 44.8036 308.826 44.648C308.826 44.4924 308.699 44.3663 308.541 44.3663H308.256C308.099 44.3663 307.971 44.4924 307.971 44.648Z" fill="#212326"/>
<path d="M299.701 53.3807H301.086L300.683 52.9823C300.576 52.8767 300.431 52.8173 300.28 52.8173H299.701C297.496 52.8173 295.708 51.0516 295.708 48.8735C295.708 46.6954 297.496 44.9297 299.701 44.9297H304.264C306.469 44.9297 308.256 46.6954 308.256 48.8735C308.256 51.0516 306.469 52.8173 304.264 52.8173H302.557C302.33 52.8173 302.112 52.7283 301.952 52.5698L301.479 52.1031C301.212 51.8389 300.849 51.6905 300.471 51.6905H299.701C298.126 51.6905 296.849 50.4293 296.849 48.8735C296.849 47.3177 298.126 46.0565 299.701 46.0565H304.264C305.839 46.0565 307.115 47.3177 307.115 48.8735C307.115 50.4293 305.839 51.6905 304.264 51.6905H303.168C302.941 51.6905 302.723 51.6015 302.563 51.443L302.09 50.9763C301.823 50.7121 301.46 50.5637 301.082 50.5637H299.701C298.756 50.5637 297.99 49.807 297.99 48.8735C297.99 47.9401 298.756 47.1833 299.701 47.1833H304.264C305.209 47.1833 305.975 47.9401 305.975 48.8735C305.975 49.7956 305.227 50.5453 304.298 50.5634L304.298 50.5637H303.881C303.654 50.5637 303.436 50.4747 303.276 50.3162L302.803 49.8495C302.584 49.6327 302.3 49.4939 301.997 49.4511L301.982 49.4369H299.701C299.386 49.4369 299.13 49.1847 299.13 48.8735C299.13 48.5624 299.386 48.3101 299.701 48.3101H304.264C304.579 48.3101 304.834 48.5624 304.834 48.8735C304.834 49.1847 304.579 49.4369 304.264 49.4369H303.123L303.526 49.8353C303.633 49.941 303.778 50.0003 303.93 50.0003H304.264C304.894 50.0003 305.404 49.4958 305.404 48.8735C305.404 48.2512 304.894 47.7467 304.264 47.7467H299.701C299.071 47.7467 298.56 48.2512 298.56 48.8735C298.56 49.4958 299.071 50.0003 299.701 50.0003H301.795C302.022 50.0003 302.239 50.0894 302.4 50.2478L302.872 50.7146C303.14 50.9787 303.502 51.1271 303.881 51.1271H304.406V51.1228C305.6 51.0501 306.545 50.0708 306.545 48.8735C306.545 47.6289 305.524 46.6199 304.264 46.6199H299.701C298.441 46.6199 297.419 47.6289 297.419 48.8735C297.419 50.1182 298.441 51.1271 299.701 51.1271H301.082C301.309 51.1271 301.527 51.2162 301.687 51.3746L302.159 51.8414C302.427 52.1055 302.79 52.2539 303.168 52.2539H304.264C306.154 52.2539 307.686 50.7405 307.686 48.8735C307.686 47.0066 306.154 45.4931 304.264 45.4931H299.701C297.811 45.4931 296.279 47.0066 296.279 48.8735C296.279 50.7405 297.811 52.2539 299.701 52.2539H300.471C300.698 52.2539 300.916 52.343 301.076 52.5014L301.549 52.9682C301.816 53.2323 302.179 53.3807 302.557 53.3807H304.264C306.784 53.3807 308.827 51.3628 308.827 48.8735C308.827 46.3843 306.784 44.3663 304.264 44.3663L299.701 44.3663C297.181 44.3663 295.138 46.3843 295.138 48.8735C295.138 51.3628 297.181 53.3807 299.701 53.3807Z" fill="#212326"/>
</g>
<g clip-path="url(#clip5_2_837)">
<path d="M358.687 45.3679C358.009 45.3679 357.359 45.6373 356.88 46.1167L355.315 47.6813C354.836 48.1607 354.566 48.8109 354.566 49.4889C354.566 50.9007 355.711 52.0453 357.123 52.0453C357.801 52.0453 358.451 51.7759 358.93 51.2965L360.012 50.2143C360.012 50.2142 360.012 50.2143 360.012 50.2143L363.166 47.061C363.395 46.832 363.705 46.7034 364.029 46.7034C364.571 46.7034 365.031 47.0567 365.19 47.5456L366.185 46.5505C365.731 45.8394 364.935 45.3679 364.029 45.3679C363.351 45.3679 362.701 45.6373 362.221 46.1167L357.986 50.3522C357.757 50.5812 357.446 50.7098 357.123 50.7098C356.448 50.7098 355.902 50.1632 355.902 49.4889C355.902 49.1651 356.03 48.8545 356.259 48.6256L357.824 47.061C358.053 46.832 358.363 46.7034 358.687 46.7034C359.229 46.7034 359.689 47.0567 359.848 47.5457L360.843 46.5505C360.389 45.8394 359.593 45.3679 358.687 45.3679Z" fill="#394149"/>
<path d="M363.328 50.3522C363.099 50.5811 362.788 50.7098 362.464 50.7098C361.922 50.7098 361.463 50.3565 361.303 49.8677L360.308 50.8628C360.762 51.5738 361.558 52.0452 362.464 52.0452C363.142 52.0452 363.793 51.7759 364.272 51.2965L368.508 47.061C368.737 46.832 369.047 46.7034 369.371 46.7034C370.045 46.7034 370.592 47.25 370.592 47.9243C370.592 48.2481 370.463 48.5586 370.234 48.7876L368.67 50.3522C368.441 50.5811 368.13 50.7098 367.806 50.7098C367.264 50.7098 366.805 50.3565 366.645 49.8676L365.65 50.8628C366.104 51.5738 366.9 52.0452 367.806 52.0452C368.484 52.0452 369.134 51.7759 369.614 51.2965L371.178 49.7319C371.658 49.2525 371.927 48.6023 371.927 47.9243C371.927 46.5124 370.783 45.3679 369.371 45.3679C368.693 45.3679 368.043 45.6372 367.563 46.1167L363.328 50.3522Z" fill="#394149"/>
</g>
<g clip-path="url(#clip6_2_837)">
<path d="M434.025 47.2608C434.027 47.2469 434.027 47.2328 434.025 47.2189C434.027 47.2076 434.027 47.196 434.025 47.1846L433.889 46.2055C433.869 46.0884 433.817 45.9789 433.737 45.8893L433.714 45.8626L433.671 45.8207L431.316 43.832L431.383 43.8968C431.328 43.8334 431.261 43.7827 431.184 43.7484C431.107 43.7141 431.024 43.6971 430.94 43.6987H430.224C430.108 43.6964 429.995 43.7327 429.902 43.8016C429.805 43.7331 429.687 43.697 429.568 43.6987H428.853C428.759 43.6972 428.666 43.72 428.585 43.7648C428.503 43.8097 428.434 43.8749 428.386 43.9539C428.313 44.0668 428.285 44.2029 428.309 44.3349L428.398 44.9521C428.339 44.9192 428.272 44.9021 428.204 44.9026H424.741C424.617 44.9034 424.496 44.939 424.391 45.0054C424.291 45.0673 424.21 45.1557 424.158 45.2607L423.89 45.0359C423.785 44.9402 423.645 44.8883 423.502 44.8912H418.069C417.944 44.8934 417.822 44.9275 417.715 44.9902C417.569 45.0742 417.461 45.2109 417.416 45.3712L415.691 51.0287C415.658 51.1219 415.655 51.2225 415.681 51.3175C415.708 51.4124 415.762 51.4976 415.838 51.5621C415.858 51.5785 415.879 51.5938 415.9 51.6078C415.9 51.6078 415.865 51.5849 415.846 51.5659L418.201 53.5584C418.301 53.6483 418.431 53.6986 418.566 53.6993H424.042C424.167 53.6962 424.289 53.6607 424.395 53.5965C424.456 53.5642 424.51 53.5216 424.555 53.4708L424.574 53.4441L424.605 53.406L424.629 53.3641L424.885 53.5813C424.983 53.6676 425.111 53.7151 425.243 53.7146H430.73C430.855 53.7105 430.976 53.6751 431.083 53.6117C431.142 53.5774 431.196 53.5351 431.243 53.486L431.262 53.4593L431.293 53.4212C431.31 53.3971 431.324 53.3716 431.336 53.345C431.349 53.3219 431.359 53.2977 431.367 53.2727L432.941 48.1066V48.0609C432.943 48.0432 432.943 48.0253 432.941 48.0076V47.9733C432.943 47.9619 432.943 47.9503 432.941 47.939C432.943 47.9149 432.943 47.8907 432.941 47.8666H433.446C433.49 47.8705 433.534 47.8705 433.578 47.8666H433.613C433.642 47.8583 433.669 47.8467 433.695 47.8323H433.734L433.804 47.779L433.835 47.7561L433.889 47.6875V47.6647L433.928 47.5999C433.926 47.5873 433.926 47.5744 433.928 47.5618C433.926 47.5556 433.926 47.5489 433.928 47.5428C433.936 47.5204 433.943 47.4975 433.947 47.4742C433.946 47.4667 433.946 47.4588 433.947 47.4513C433.945 47.44 433.945 47.4284 433.947 47.417C433.947 47.417 434.025 47.2684 434.025 47.2608Z" fill="black"/>
<path d="M423.661 45.3254C423.682 45.3437 423.696 45.3678 423.702 45.3943C423.709 45.4209 423.706 45.4487 423.696 45.474L421.974 51.1277C421.953 51.1894 421.908 51.2411 421.85 51.2725C421.803 51.3036 421.748 51.322 421.691 51.3258H416.219C416.172 51.3236 416.128 51.3047 416.095 51.2725C416.075 51.2545 416.061 51.2311 416.055 51.2053C416.049 51.1796 416.05 51.1525 416.06 51.1277L417.785 45.474C417.805 45.4115 417.848 45.3585 417.906 45.3254C417.954 45.2965 418.009 45.2796 418.065 45.2759H423.537C423.583 45.2763 423.627 45.2941 423.661 45.3254ZM420.805 49.9886L421.834 46.6131H418.951L417.925 49.9886H420.805ZM428.884 45.3826C428.902 45.4039 428.926 45.4207 428.952 45.4319C428.978 45.4431 429.007 45.4484 429.035 45.4474H429.747C429.774 45.4476 429.8 45.4411 429.824 45.4284C429.848 45.4158 429.868 45.3974 429.883 45.375C429.895 45.3575 429.904 45.3377 429.909 45.3167C429.913 45.2958 429.914 45.2741 429.91 45.2531L429.77 44.2473C429.757 44.2007 429.733 44.1577 429.7 44.1216C429.681 44.1003 429.658 44.0834 429.632 44.0722C429.605 44.061 429.577 44.0557 429.548 44.0568H428.837C428.81 44.0565 428.783 44.063 428.76 44.0757C428.736 44.0884 428.716 44.1068 428.701 44.1292C428.674 44.1825 428.662 44.2168 428.674 44.2473L428.818 45.2531C428.825 45.302 428.848 45.3474 428.884 45.3826ZM431.142 44.2397C431.128 44.1931 431.104 44.1501 431.072 44.1139C431.054 44.0927 431.031 44.0759 431.006 44.0646C430.98 44.0534 430.952 44.0481 430.924 44.0492H430.209C430.182 44.0484 430.156 44.0548 430.133 44.0675C430.109 44.0802 430.09 44.0989 430.077 44.1216C430.051 44.1553 430.04 44.1978 430.046 44.2397L430.19 45.2454C430.199 45.2939 430.221 45.3388 430.256 45.375C430.275 45.3958 430.298 45.4124 430.324 45.4236C430.35 45.4348 430.379 45.4403 430.407 45.4397H431.122C431.149 45.4401 431.175 45.4336 431.198 45.4209C431.221 45.4082 431.241 45.3897 431.254 45.3673C431.268 45.3503 431.277 45.3305 431.282 45.3094C431.287 45.2883 431.287 45.2665 431.282 45.2454L431.142 44.2397ZM428.258 45.7636L428.188 45.2683H424.741C424.687 45.2712 424.635 45.2883 424.59 45.3178C424.561 45.3331 424.536 45.3543 424.517 45.38C424.497 45.4056 424.484 45.4351 424.477 45.4664L424.189 46.4112C424.178 46.4348 424.174 46.4613 424.178 46.4872C424.182 46.513 424.194 46.537 424.213 46.556C424.246 46.5862 424.288 46.6038 424.333 46.6055H428.522L427.493 49.981H423.315C423.261 49.9822 423.209 49.998 423.164 50.0267C423.109 50.0609 423.068 50.1138 423.051 50.1753L422.759 51.1201C422.75 51.1444 422.747 51.1707 422.752 51.1962C422.757 51.2218 422.769 51.2455 422.787 51.2649C422.818 51.2971 422.861 51.3162 422.907 51.3182H428.394C428.451 51.3134 428.506 51.2951 428.553 51.2649C428.611 51.2333 428.654 51.1816 428.674 51.1201L430.252 45.9541H428.476C428.448 45.9546 428.42 45.9495 428.394 45.939C428.367 45.9285 428.344 45.9129 428.324 45.8931C428.292 45.8585 428.269 45.8166 428.258 45.7712V45.7636Z" fill="white"/>
</g>
<defs>
<clipPath id="clip0_2_837">
<rect width="13.3547" height="13.3547" fill="white" transform="translate(49.4122 42.0804)"/>
</clipPath>
<clipPath id="clip1_2_837">
<rect width="13.3547" height="9.34826" fill="white" transform="translate(110.844 44.0325)"/>
</clipPath>
<clipPath id="clip2_2_837">
<rect width="18.3627" height="10.016" fill="white" transform="translate(169.938 43.6986)"/>
</clipPath>
<clipPath id="clip3_2_837">
<rect width="15.6917" height="9.68213" fill="white" transform="translate(232.705 44.0325)"/>
</clipPath>
<clipPath id="clip4_2_837">
<rect width="13.6885" height="9.0144" fill="white" transform="translate(295.138 44.3663)"/>
</clipPath>
<clipPath id="clip5_2_837">
<rect width="17.3611" height="6.67733" fill="white" transform="translate(354.566 45.3679)"/>
</clipPath>
<clipPath id="clip6_2_837">
<rect width="18.3627" height="10.016" fill="white" transform="translate(415.664 43.6986)"/>
</clipPath>
</defs>
</svg>
